<svg width="320" height="320" viewBox="0 0 320 320" fill="none" xmlns="http://www.w3.org/2000/svg">
<circle cx="160" cy="160" r="160" fill="white"/>
<path fill-rule="evenodd" clip-rule="evenodd" d="M118.539 122.947C118.539 128.744 113.841 133.442 108.044 133.442C102.247 133.442 97.548 128.744 97.548 122.947C97.548 117.15 102.247 112.451 108.044 112.451C113.841 112.451 118.539 117.15 118.539 122.947Z" fill="#EFBA00"/>
<path d="M117.97 111.087C119.684 110.57 121.377 110.059 121.141 106.097C119.615 106.698 118.035 107.484 116.918 108.537C115.845 109.549 115.2 110.813 115.455 112.4C116.133 111.64 117.055 111.362 117.97 111.087Z" fill="#EFBA00"/>
<path d="M106.562 107.589C107.409 106.012 108.245 104.454 105.277 101.818C104.622 103.322 104.061 104.996 104.016 106.531C103.972 108.005 104.41 109.354 105.711 110.296C105.655 109.28 106.11 108.431 106.562 107.589Z" fill="#EFBA00"/>
<path d="M96.073 113.137C95.5564 111.423 95.0452 109.73 91.0831 109.966C91.6842 111.492 92.4706 113.072 93.5239 114.19C94.5357 115.262 95.799 115.907 97.386 115.653C96.6268 114.974 96.3487 114.053 96.073 113.137Z" fill="#EFBA00"/>
<path d="M92.5938 124.492C91.0163 123.645 89.4583 122.809 86.8228 125.777C88.3269 126.432 90.0009 126.993 91.5352 127.038C93.0091 127.081 94.3582 126.644 95.3008 125.342C94.2843 125.399 93.4358 124.944 92.5938 124.492Z" fill="#EFBA00"/>
<path d="M98.1701 134.995C96.4559 135.511 94.763 136.023 94.9985 139.985C96.5246 139.384 98.105 138.597 99.2222 137.544C100.295 136.532 100.94 135.269 100.685 133.682C100.007 134.441 99.0855 134.719 98.1701 134.995Z" fill="#EFBA00"/>
<path d="M109.507 138.491C108.661 140.068 107.825 141.626 110.793 144.261C111.447 142.757 112.009 141.083 112.054 139.549C112.097 138.075 111.66 136.726 110.358 135.783C110.415 136.8 109.96 137.649 109.507 138.491Z" fill="#EFBA00"/>
<path d="M120.018 132.938C120.534 134.652 121.046 136.345 125.008 136.11C124.407 134.583 123.62 133.003 122.567 131.886C121.555 130.813 120.292 130.168 118.705 130.423C119.464 131.101 119.742 132.023 120.018 132.938Z" fill="#EFBA00"/>
<path d="M123.469 121.594C125.046 122.44 126.604 123.277 129.24 120.308C127.736 119.654 126.062 119.093 124.527 119.048C123.053 119.004 121.704 119.442 120.762 120.743C121.778 120.687 122.627 121.142 123.469 121.594Z" fill="#EFBA00"/>
<path d="M96.8469 177.573H89.6867L129.211 140.196L167.59 153.085L149.832 168.121L129.211 148.073L96.8469 177.573Z" fill="#004D08"/>
<path d="M142.099 143.49L137.66 141.056L157.565 121.723L174.177 127.022L194.512 145.352L180.049 150.221L157.995 128.883L142.099 143.49Z" fill="#004D08"/>
<path d="M196.231 147.213L169.595 153.944L143.245 176.284H171.027L195.658 154.23L220.289 176.857L226.876 176.284L196.231 147.213Z" fill="#004D08"/>
<path d="M121.191 164.971V170.843H126.49V164.971H121.191Z" fill="#A1A1A1"/>
<path d="M126.49 172.418H121.191V178.146H126.49V172.418Z" fill="#A1A1A1"/>
<path d="M127.922 164.971V170.843H133.22L133.077 164.971H127.922Z" fill="#A1A1A1"/>
<path d="M127.922 178.146V172.418H133.077L133.22 178.146H127.922Z" fill="#A1A1A1"/>
<path d="M188.927 165.544V169.984H193.08V165.544H188.927Z" fill="#A1A1A1"/>
<path d="M194.369 165.544V169.984H198.522V165.544H194.369Z" fill="#A1A1A1"/>
<path d="M198.522 171.129H194.369V175.569H198.522V171.129Z" fill="#A1A1A1"/>
<path d="M188.927 171.129H193.08V175.569H188.927V171.129Z" fill="#A1A1A1"/>
<path d="M74.7933 188.6H83.8733V199.998L74.7933 207.875V188.6Z" fill="#2D1000"/>
<path d="M91.1185 190.604H86.8224V195.854L91.1185 199.482V190.604Z" fill="#2D1000"/>
<path d="M237.392 200.741H240.107V204.785L243.128 200.741H244.485L242.259 203.738L245.176 207.726H242.118L240.558 205.532L240.107 206.152V207.721H237.392V200.741Z" fill="#EFBA00"/>
<path d="M232.954 200.741H235.674L235.669 207.721H232.954V200.741Z" fill="#EFBA00"/>
<path d="M222.297 200.741H224.218L226.858 204.395L229.366 200.741H231.236V207.721H228.526V204.156L225.923 207.81L223.331 204.156V207.721H222.297V200.741Z" fill="#EFBA00"/>
<path d="M212.556 204.217C212.556 203.687 212.64 203.204 212.809 202.765C212.978 202.324 213.231 201.945 213.566 201.628C213.901 201.312 214.319 201.066 214.82 200.891C215.321 200.716 215.903 200.628 216.567 200.628C217.231 200.628 217.813 200.716 218.314 200.891C218.815 201.066 219.234 201.312 219.569 201.628C219.904 201.945 220.156 202.324 220.325 202.765C220.494 203.204 220.578 203.687 220.578 204.217C220.578 204.752 220.494 205.242 220.325 205.687C220.156 206.131 219.904 206.512 219.569 206.828C219.234 207.144 218.815 207.39 218.314 207.566C217.813 207.741 217.231 207.829 216.567 207.829C215.903 207.829 215.321 207.741 214.82 207.566C214.319 207.39 213.901 207.144 213.566 206.828C213.231 206.512 212.978 206.131 212.809 205.687C212.64 205.242 212.556 204.752 212.556 204.217ZM216.567 206.856C216.755 206.856 216.921 206.823 217.065 206.758C217.209 206.692 217.33 206.564 217.427 206.373C217.524 206.182 217.597 205.914 217.647 205.569C217.698 205.225 217.723 204.774 217.723 204.217C217.723 203.665 217.698 203.219 217.647 202.878C217.597 202.537 217.524 202.272 217.427 202.084C217.33 201.896 217.209 201.769 217.065 201.704C216.921 201.638 216.755 201.605 216.567 201.605C216.379 201.605 216.212 201.638 216.065 201.704C215.92 201.769 215.8 201.896 215.703 202.084C215.606 202.272 215.532 202.537 215.482 202.878C215.432 203.219 215.407 203.665 215.407 204.217C215.407 204.774 215.432 205.225 215.482 205.569C215.532 205.914 215.606 206.182 215.703 206.373C215.8 206.564 215.92 206.692 216.065 206.758C216.212 206.823 216.379 206.856 216.567 206.856Z" fill="#EFBA00"/>
<path d="M204.25 200.717H207.12C207.928 200.717 208.628 200.793 209.22 200.947C209.811 201.097 210.302 201.319 210.69 201.614C211.078 201.908 211.366 202.27 211.554 202.699C211.742 203.128 211.836 203.619 211.836 204.174C211.836 204.668 211.742 205.13 211.554 205.559C211.366 205.985 211.078 206.358 210.69 206.677C210.302 206.994 209.811 207.242 209.22 207.424C208.628 207.606 207.928 207.697 207.12 207.697H204.25V200.717ZM206.965 206.673C207.278 206.673 207.56 206.624 207.81 206.527C208.061 206.43 208.272 206.28 208.445 206.076C208.62 205.872 208.753 205.614 208.844 205.301C208.938 204.985 208.985 204.607 208.985 204.169C208.985 203.734 208.938 203.363 208.844 203.056C208.75 202.749 208.615 202.498 208.44 202.304C208.265 202.107 208.052 201.964 207.801 201.877C207.554 201.786 207.277 201.741 206.97 201.741L206.965 206.673Z" fill="#EFBA00"/>
<path d="M94.271 161.754C92.0237 160.916 89.3644 156.39 88.3157 154.231C88.7651 155.374 84.4578 159.913 82.248 162.04C82.5102 161.881 83.6863 161.374 86.2931 160.612C86.7426 161.831 82.1357 168.357 79.776 171.468C80.2629 171.405 81.7087 171.106 83.5964 170.421C83.8661 171.411 79.6636 176.357 77.5287 178.706C78.0905 178.611 79.8209 178.287 82.248 177.754C82.5861 178.972 80.6418 183.845 75.5834 187.563H80.4115C79.7221 188.738 78.008 190.197 74.7933 192.523C77.6774 192.428 87.5966 192.668 103.148 192.896C100.091 192.363 97.3048 189.118 96.2935 187.563H101.125C97.6194 185.887 95.095 180.325 94.271 177.754C94.4583 177.754 95.8216 177.944 99.7768 178.706C97.5296 177.792 94.271 172.802 92.9226 170.421C93.1099 170.516 94.1586 170.859 96.8554 171.468C94.6081 170.554 91.4993 163.85 90.2259 160.612C90.5255 160.707 91.754 161.069 94.271 161.754Z" fill="#001002"/>
<path d="M194.231 205.753L191.864 200.741H194.837L196.556 204.339L197.942 200.741H199.172L197.087 205.753V207.721H194.231V205.753Z" fill="#EFBA00"/>
<path d="M183.296 204.217C183.296 203.687 183.381 203.204 183.55 202.765C183.719 202.324 183.971 201.945 184.306 201.628C184.641 201.312 185.059 201.066 185.56 200.891C186.061 200.716 186.644 200.628 187.308 200.628C187.971 200.628 188.554 200.716 189.055 200.891C189.556 201.066 189.974 201.312 190.309 201.628C190.644 201.945 190.896 202.324 191.065 202.765C191.234 203.204 191.319 203.687 191.319 204.217C191.319 204.752 191.234 205.242 191.065 205.687C190.896 206.131 190.644 206.512 190.309 206.828C189.974 207.144 189.556 207.39 189.055 207.566C188.554 207.741 187.971 207.829 187.308 207.829C186.644 207.829 186.061 207.741 185.56 207.566C185.059 207.39 184.641 207.144 184.306 206.828C183.971 206.512 183.719 206.131 183.55 205.687C183.381 205.242 183.296 204.752 183.296 204.217ZM187.308 206.856C187.495 206.856 187.661 206.823 187.805 206.758C187.949 206.692 188.07 206.564 188.167 206.373C188.264 206.182 188.338 205.914 188.388 205.569C188.438 205.225 188.463 204.774 188.463 204.217C188.463 203.665 188.438 203.219 188.388 202.878C188.338 202.537 188.264 202.272 188.167 202.084C188.07 201.896 187.949 201.769 187.805 201.704C187.661 201.638 187.495 201.605 187.308 201.605C187.12 201.605 186.952 201.638 186.805 201.704C186.661 201.769 186.54 201.896 186.443 202.084C186.346 202.272 186.273 202.537 186.222 202.878C186.172 203.219 186.147 203.665 186.147 204.217C186.147 204.774 186.172 205.225 186.222 205.569C186.273 205.914 186.346 206.182 186.443 206.373C186.54 206.564 186.661 206.692 186.805 206.758C186.952 206.823 187.12 206.856 187.308 206.856Z" fill="#EFBA00"/>
<path d="M175.405 200.742H178.378L180.013 205.228L181.526 200.742L182.752 200.737L180.304 207.722L178.092 207.717L175.405 200.742Z" fill="#EFBA00"/>
<path d="M168.805 200.741H174.705V201.817H171.525L171.52 203.7H173.953V204.776H171.52V206.645H174.705V207.721H168.805V200.741Z" fill="#EFBA00"/>
<path d="M163.08 201.813H161.088V200.737H167.786V201.813H165.795V207.722H163.08V201.813Z" fill="#EFBA00"/>
<path d="M154.329 206.171C154.661 206.34 155.008 206.467 155.371 206.551C155.735 206.636 156.073 206.678 156.386 206.678C156.746 206.678 157.009 206.626 157.175 206.523C157.344 206.42 157.429 206.279 157.429 206.1C157.429 206.044 157.418 205.986 157.396 205.926C157.377 205.867 157.338 205.809 157.278 205.753C157.222 205.693 157.142 205.635 157.039 205.579C156.939 205.519 156.807 205.461 156.644 205.405L155.804 205.118C155.202 204.912 154.75 204.633 154.446 204.282C154.142 203.928 153.99 203.509 153.99 203.023C153.99 202.71 154.056 202.41 154.188 202.122C154.319 201.83 154.518 201.575 154.784 201.356C155.05 201.134 155.385 200.957 155.789 200.825C156.197 200.694 156.673 200.628 157.217 200.628C157.487 200.628 157.745 200.644 157.992 200.675C158.24 200.706 158.472 200.747 158.688 200.797C158.907 200.847 159.107 200.905 159.289 200.971C159.47 201.033 159.63 201.096 159.768 201.159L159.261 202.075C159.16 202.012 159.054 201.957 158.941 201.91C158.832 201.863 158.72 201.824 158.608 201.793C158.498 201.762 158.39 201.738 158.284 201.722C158.177 201.707 158.08 201.699 157.992 201.699C157.842 201.699 157.711 201.719 157.598 201.76C157.485 201.798 157.39 201.849 157.311 201.915C157.236 201.978 157.178 202.05 157.138 202.131C157.1 202.209 157.081 202.288 157.081 202.366C157.081 202.435 157.097 202.502 157.128 202.568C157.163 202.63 157.219 202.693 157.297 202.756C157.379 202.815 157.484 202.876 157.612 202.939C157.743 202.998 157.906 203.061 158.1 203.127L158.664 203.315C159.275 203.518 159.741 203.799 160.064 204.156C160.386 204.512 160.548 204.945 160.548 205.452C160.548 205.796 160.469 206.114 160.313 206.405C160.159 206.697 159.929 206.949 159.622 207.162C159.315 207.371 158.933 207.536 158.476 207.655C158.022 207.771 157.495 207.829 156.893 207.829C156.605 207.829 156.326 207.813 156.057 207.782C155.791 207.754 155.53 207.71 155.273 207.65C155.019 207.591 154.769 207.516 154.521 207.425C154.274 207.334 154.026 207.227 153.779 207.105L154.329 206.171Z" fill="#EFBA00"/>
<path d="M144.836 204.217C144.836 203.687 144.92 203.204 145.09 202.765C145.259 202.324 145.511 201.945 145.846 201.628C146.181 201.312 146.599 201.066 147.1 200.891C147.601 200.716 148.183 200.628 148.847 200.628C149.511 200.628 150.094 200.716 150.595 200.891C151.096 201.066 151.514 201.312 151.849 201.628C152.184 201.945 152.436 202.324 152.605 202.765C152.774 203.204 152.859 203.687 152.859 204.217C152.859 204.752 152.774 205.242 152.605 205.687C152.436 206.131 152.184 206.512 151.849 206.828C151.514 207.144 151.096 207.39 150.595 207.566C150.094 207.741 149.511 207.829 148.847 207.829C148.183 207.829 147.601 207.741 147.1 207.566C146.599 207.39 146.181 207.144 145.846 206.828C145.511 206.512 145.259 206.131 145.09 205.687C144.92 205.242 144.836 204.752 144.836 204.217ZM148.847 206.856C149.035 206.856 149.201 206.823 149.345 206.758C149.489 206.692 149.61 206.564 149.707 206.373C149.804 206.182 149.878 205.914 149.928 205.569C149.978 205.225 150.003 204.774 150.003 204.217C150.003 203.665 149.978 203.219 149.928 202.878C149.878 202.537 149.804 202.272 149.707 202.084C149.61 201.896 149.489 201.769 149.345 201.704C149.201 201.638 149.035 201.605 148.847 201.605C148.659 201.605 148.492 201.638 148.345 201.704C148.201 201.769 148.08 201.896 147.983 202.084C147.886 202.272 147.812 202.537 147.762 202.878C147.712 203.219 147.687 203.665 147.687 204.217C147.687 204.774 147.712 205.225 147.762 205.569C147.812 205.914 147.886 206.182 147.983 206.373C148.08 206.564 148.201 206.692 148.345 206.758C148.492 206.823 148.659 206.856 148.847 206.856Z" fill="#EFBA00"/>
<path d="M136.371 204.235C136.371 203.903 136.414 203.584 136.498 203.277C136.586 202.967 136.713 202.679 136.879 202.413C137.045 202.147 137.248 201.904 137.489 201.685C137.73 201.466 138.004 201.278 138.311 201.121C138.621 200.965 138.963 200.844 139.335 200.759C139.708 200.672 140.109 200.628 140.538 200.628C140.813 200.628 141.076 200.645 141.327 200.68C141.581 200.714 141.819 200.763 142.041 200.825C142.263 200.885 142.468 200.955 142.656 201.037C142.847 201.115 143.019 201.198 143.173 201.286L142.769 202.075C142.594 201.99 142.393 201.92 142.168 201.863C141.945 201.804 141.714 201.774 141.473 201.774C141.15 201.774 140.851 201.832 140.575 201.948C140.3 202.064 140.062 202.228 139.861 202.441C139.661 202.654 139.503 202.912 139.387 203.216C139.274 203.517 139.218 203.855 139.218 204.231C139.218 204.603 139.274 204.941 139.387 205.245C139.5 205.546 139.655 205.804 139.852 206.02C140.052 206.233 140.289 206.399 140.561 206.518C140.837 206.634 141.134 206.692 141.454 206.692V204.329H144.192L143.704 205.217V207.115L143.708 207.124C143.555 207.215 143.365 207.303 143.14 207.387C142.915 207.472 142.662 207.548 142.384 207.617C142.108 207.683 141.814 207.736 141.501 207.777C141.188 207.818 140.867 207.838 140.538 207.838C139.896 207.838 139.317 207.744 138.8 207.556C138.286 207.365 137.849 207.107 137.489 206.781C137.129 206.452 136.852 206.07 136.658 205.635C136.467 205.197 136.371 204.73 136.371 204.235Z" fill="#EFBA00"/>
<path d="M171.634 211.23H174.349V215.664C174.349 215.915 174.382 216.132 174.448 216.317C174.517 216.499 174.611 216.651 174.73 216.773C174.852 216.892 174.994 216.981 175.157 217.04C175.32 217.1 175.495 217.13 175.683 217.13C175.89 217.13 176.075 217.1 176.237 217.04C176.403 216.981 176.544 216.89 176.66 216.768C176.776 216.646 176.865 216.492 176.928 216.308C176.991 216.123 177.022 215.905 177.022 215.655V211.23H178.055V215.495C178.055 215.927 177.985 216.317 177.844 216.665C177.706 217.012 177.509 217.31 177.252 217.557C176.995 217.801 176.685 217.989 176.322 218.121C175.959 218.252 175.553 218.318 175.105 218.318C174.495 218.318 173.97 218.254 173.532 218.125C173.093 217.994 172.733 217.808 172.452 217.566C172.17 217.322 171.963 217.028 171.831 216.683C171.7 216.339 171.634 215.951 171.634 215.518V211.23Z" fill="#EFBA00"/>
<path d="M165.232 212.991L164.424 211.23H167.285L170.704 218.215H167.637L167.12 217.097H164.368L163.856 218.215H162.667L165.232 212.991ZM166.627 216.021L165.744 214.105L164.866 216.021H166.627Z" fill="#EFBA00"/>
<path d="M157.575 212.301H155.584V211.226H162.282V212.301H160.29V218.21H157.575V212.301Z" fill="#EFBA00"/>
<path d="M149.919 212.991L149.111 211.23H151.972L155.392 218.215H152.324L151.808 217.097H149.055L148.543 218.215H147.355L149.919 212.991ZM151.314 216.021L150.431 214.105L149.553 216.021H151.314Z" fill="#EFBA00"/>
<path d="M137.26 211.23H139.181L141.821 214.884L144.33 211.23H146.199V218.21H143.489V214.645L140.887 218.299L138.294 214.645V218.21H137.26V211.23Z" fill="#EFBA00"/>
<path d="M130.76 211.23H133.479L133.475 217.134H136.143V218.21H130.76V211.23Z" fill="#EFBA00"/>
<path d="M124.329 212.993L123.521 211.231H126.382L129.801 218.216H126.734L126.218 217.098H123.465L122.953 218.216H121.765L124.329 212.993ZM125.724 216.022L124.841 214.106L123.963 216.022H125.724Z" fill="#EFBA00"/>
<path d="M104.58 177.43H99.4247L129.068 149.219L131.359 151.796L104.58 177.43Z" fill="#636363"/>
<path d="M196.517 155.663L194.083 157.811L214.561 177.86L217.998 177L196.517 155.663Z" fill="#636363"/>
<path d="M228.966 173.961H232.468L233.838 181.725H227.9L228.966 173.961Z" fill="#210C00"/>
<path d="M235.766 154.119C233.98 153.43 231.867 149.705 231.034 147.928C231.391 148.869 227.968 152.604 226.213 154.355C226.421 154.224 227.355 153.806 229.427 153.179C229.784 154.182 226.123 159.553 224.248 162.113C224.635 162.061 225.784 161.815 227.284 161.251C227.498 162.066 224.159 166.136 222.463 168.069C222.909 167.991 224.284 167.724 226.213 167.285C226.481 168.287 224.936 172.298 220.917 175.357H224.753C224.205 176.324 222.843 177.525 220.289 179.438C222.581 179.36 230.463 179.558 242.82 179.746C240.391 179.307 238.177 176.637 237.373 175.357H241.213C238.427 173.978 236.421 169.401 235.766 167.285C235.915 167.285 236.998 167.442 240.141 168.069C238.355 167.317 235.766 163.21 234.695 161.251C234.844 161.329 235.677 161.611 237.82 162.113C236.034 161.361 233.564 155.844 232.552 153.179C232.79 153.257 233.766 153.555 235.766 154.119Z" fill="#001602"/>
<path d="M235.755 169.697H242.342L244.634 184.017L233.464 183.874L235.755 169.697Z" fill="#2D1000"/>
<path d="M248.548 132.368C245.188 131.07 241.213 124.062 239.645 120.72C240.317 122.489 233.878 129.517 230.574 132.81C230.966 132.564 232.724 131.778 236.621 130.598C237.293 132.486 230.406 142.59 226.878 147.406C227.606 147.308 229.768 146.846 232.59 145.784C232.993 147.318 226.71 154.975 223.519 158.611C224.359 158.464 226.946 157.963 230.574 157.137C231.079 159.023 228.173 166.567 220.611 172.323H227.829C226.798 174.142 224.235 176.402 219.43 180.002C223.741 179.854 238.57 180.226 261.818 180.58C257.249 179.754 253.083 174.731 251.571 172.323H258.794C253.553 169.728 249.78 161.118 248.548 157.137C248.828 157.137 250.866 157.432 256.779 158.611C253.419 157.196 248.548 149.47 246.532 145.784C246.812 145.932 248.38 146.463 252.411 147.406C249.052 145.991 244.404 135.611 242.5 130.598C242.948 130.746 244.785 131.306 248.548 132.368Z" fill="#003705"/>
<path d="M86.3362 144.937C83.3853 143.516 79.8933 135.837 78.5161 132.175C79.1063 134.114 73.4503 141.814 70.5485 145.422C70.8928 145.153 72.4371 144.291 75.8603 142.999C76.4505 145.067 70.4009 156.138 67.3024 161.415C67.9418 161.307 69.8403 160.801 72.3191 159.638C72.6732 161.318 67.1549 169.708 64.3514 173.693C65.0892 173.531 67.3614 172.982 70.5485 172.077C70.9925 174.143 68.4393 182.41 61.797 188.716H68.137C67.2316 190.709 64.9808 193.185 60.7595 197.13C64.5466 196.968 77.5718 197.375 97.9926 197.763C93.9793 196.858 90.3201 191.355 88.9921 188.716H95.3367C90.7332 185.873 87.4183 176.439 86.3362 172.077C86.5822 172.077 88.3724 172.4 93.5661 173.693C90.6152 172.142 86.3362 163.677 84.5657 159.638C84.8116 159.8 86.1887 160.381 89.7299 161.415C86.7789 159.864 82.6967 148.491 81.0245 142.999C81.4179 143.16 83.0311 143.774 86.3362 144.937Z" fill="#003705"/>
<path d="M58.1818 220.489H102.002C123.884 187.495 212.413 182.778 253.942 184.545L218.857 181.824L191.934 180.821C173.366 179.962 127.922 180.936 94.6988 191.705C70.7551 199.037 60.3776 213.949 58.1818 220.489Z" fill="#004C08"/>
<path d="M156.706 138.908V136.187H158.711V138.908H156.706Z" fill="#A1A1A1"/>
<path d="M159.57 138.908V136.187H161.575V138.908H159.57Z" fill="#A1A1A1"/>
<path d="M156.706 142.201V139.48H158.711V142.201H156.706Z" fill="#A1A1A1"/>
<path d="M159.57 142.201V139.48H161.575V142.201H159.57Z" fill="#A1A1A1"/>
<path d="M144.964 141.341L157.765 129.599L158.321 131.174L147.541 141.341H144.964Z" fill="#636363"/>
</svg>
