<svg width="711" height="415" viewBox="0 0 711 415" fill="none" xmlns="http://www.w3.org/2000/svg">
<path fill-rule="evenodd" clip-rule="evenodd" d="M210.74 73.7736C210.74 94.0138 194.334 110.418 174.094 110.418C153.854 110.418 137.448 94.0138 137.448 73.7736C137.448 53.5333 153.854 37.1274 174.094 37.1274C194.334 37.1274 210.74 53.5333 210.74 73.7736Z" fill="#EFBA00"/>
<path d="M208.752 32.363C214.737 30.5594 220.647 28.7744 219.825 14.9407C214.497 17.0397 208.979 19.7854 205.078 23.4628C201.333 26.9956 199.081 31.4064 199.969 36.9474C202.339 34.2967 205.556 33.3257 208.752 32.363Z" fill="#EFBA00"/>
<path d="M168.919 20.1494C171.876 14.6416 174.795 9.20184 164.432 0C162.147 5.25169 160.186 11.0963 160.029 16.4534C159.879 21.5997 161.405 26.3101 165.95 29.6012C165.752 26.0518 167.341 23.0892 168.919 20.1494Z" fill="#EFBA00"/>
<path d="M132.299 39.525C130.495 33.5399 128.71 27.6292 114.876 28.4514C116.975 33.7796 119.721 39.2977 123.399 43.1983C126.931 46.9439 131.342 49.1958 136.883 48.3074C134.232 45.9378 133.261 42.7211 132.299 39.525Z" fill="#EFBA00"/>
<path d="M120.149 79.1716C114.642 76.2152 109.202 73.296 100 83.6589C105.252 85.9438 111.096 87.9044 116.453 88.0614C121.6 88.2123 126.31 86.6855 129.601 82.1404C126.052 82.3387 123.089 80.75 120.149 79.1716Z" fill="#EFBA00"/>
<path d="M139.621 115.838C133.636 117.642 127.725 119.427 128.547 133.26C133.875 131.161 139.394 128.416 143.294 124.738C147.04 121.205 149.292 116.795 148.403 111.254C146.034 113.904 142.817 114.875 139.621 115.838Z" fill="#EFBA00"/>
<path d="M179.204 128.047C176.247 133.555 173.328 138.995 183.691 148.197C185.976 142.945 187.937 137.101 188.094 131.744C188.244 126.597 186.718 121.887 182.172 118.596C182.371 122.145 180.782 125.108 179.204 128.047Z" fill="#EFBA00"/>
<path d="M215.902 108.656C217.706 114.641 219.491 120.551 233.325 119.729C231.226 114.401 228.48 108.883 224.803 104.982C221.27 101.237 216.859 98.9847 211.318 99.8731C213.969 102.243 214.94 105.459 215.902 108.656Z" fill="#EFBA00"/>
<path d="M227.951 69.0474C233.459 72.0038 238.899 74.923 248.1 64.5601C242.849 62.2751 237.004 60.3145 231.647 60.1575C226.501 60.0067 221.79 61.5334 218.499 66.0786C222.049 65.8802 225.011 67.469 227.951 69.0474Z" fill="#EFBA00"/>
<path d="M135 264.5H110L248 134L382 179L320 231.5L248 161.5L135 264.5Z" fill="#004D08"/>
<path d="M293 145.5L277.5 137L347 69.5L405 88L476 152L425.5 169L348.5 94.5L293 145.5Z" fill="#004D08"/>
<path d="M482 158.5L389 182L297 260H394L480 183L566 262L589 260L482 158.5Z" fill="#004D08"/>
<path d="M220 220.5V241H238.5V220.5H220Z" fill="#A1A1A1"/>
<path d="M238.5 246.5H220V266.5H238.5V246.5Z" fill="#A1A1A1"/>
<path d="M243.5 220.5V241H262L261.5 220.5H243.5Z" fill="#A1A1A1"/>
<path d="M243.5 266.5V246.5H261.5L262 266.5H243.5Z" fill="#A1A1A1"/>
<path d="M456.5 222.5V238H471V222.5H456.5Z" fill="#A1A1A1"/>
<path d="M475.5 222.5V238H490V222.5H475.5Z" fill="#A1A1A1"/>
<path d="M490 242H475.5V257.5H490V242Z" fill="#A1A1A1"/>
<path d="M456.5 242H471V257.5H456.5V242Z" fill="#A1A1A1"/>
<path d="M58 303H89.7027V342.797L58 370.297V303Z" fill="#2D1000"/>
<path d="M115 310H100V328.332L115 341V310Z" fill="#2D1000"/>
<path d="M625.717 345.394H635.197V359.514L645.742 345.394H650.482L642.708 355.857L652.892 369.781H642.216L636.771 362.122L635.197 364.287V369.764H625.717V345.394Z" fill="#EFBA00"/>
<path d="M610.221 345.394H619.717L619.701 369.764H610.221V345.394Z" fill="#EFBA00"/>
<path d="M573.012 345.394H579.719L588.936 358.153L597.694 345.394H604.221V369.764H594.758V357.317L585.673 370.076L576.62 357.317V369.764H573.012V345.394Z" fill="#EFBA00"/>
<path d="M539 357.53C539 355.682 539.295 353.993 539.886 352.462C540.476 350.92 541.356 349.598 542.526 348.493C543.696 347.389 545.156 346.531 546.905 345.918C548.654 345.306 550.688 345 553.006 345C555.324 345 557.357 345.306 559.107 345.918C560.856 346.531 562.316 347.389 563.486 348.493C564.655 349.598 565.536 350.92 566.126 352.462C566.716 353.993 567.012 355.682 567.012 357.53C567.012 359.399 566.716 361.11 566.126 362.663C565.536 364.216 564.655 365.544 563.486 366.648C562.316 367.753 560.856 368.611 559.107 369.223C557.357 369.835 555.324 370.142 553.006 370.142C550.688 370.142 548.654 369.835 546.905 369.223C545.156 368.611 543.696 367.753 542.526 366.648C541.356 365.544 540.476 364.216 539.886 362.663C539.295 361.11 539 359.399 539 357.53ZM553.006 366.747C553.662 366.747 554.241 366.632 554.744 366.402C555.247 366.173 555.668 365.724 556.007 365.057C556.346 364.391 556.603 363.456 556.778 362.253C556.953 361.05 557.04 359.476 557.04 357.53C557.04 355.605 556.953 354.047 556.778 352.856C556.603 351.664 556.346 350.74 556.007 350.084C555.668 349.428 555.247 348.985 554.744 348.756C554.241 348.526 553.662 348.411 553.006 348.411C552.35 348.411 551.765 348.526 551.251 348.756C550.748 348.985 550.327 349.428 549.988 350.084C549.649 350.74 549.392 351.664 549.217 352.856C549.042 354.047 548.955 355.605 548.955 357.53C548.955 359.476 549.042 361.05 549.217 362.253C549.392 363.456 549.649 364.391 549.988 365.057C550.327 365.724 550.748 366.173 551.251 366.402C551.765 366.632 552.35 366.747 553.006 366.747Z" fill="#EFBA00"/>
<path d="M510 345.303H520.021C522.841 345.303 525.285 345.571 527.351 346.107C529.418 346.631 531.129 347.408 532.485 348.435C533.84 349.463 534.846 350.726 535.502 352.224C536.158 353.722 536.486 355.438 536.486 357.374C536.486 359.101 536.158 360.714 535.502 362.212C534.846 363.699 533.84 365 532.485 366.115C531.129 367.219 529.418 368.088 527.351 368.723C525.285 369.357 522.841 369.674 520.021 369.674H510V345.303ZM519.479 366.098C520.573 366.098 521.557 365.929 522.431 365.59C523.306 365.251 524.044 364.726 524.645 364.016C525.258 363.305 525.722 362.403 526.039 361.31C526.367 360.205 526.531 358.888 526.531 357.357C526.531 355.837 526.367 354.542 526.039 353.47C525.711 352.399 525.241 351.524 524.629 350.846C524.017 350.157 523.273 349.66 522.399 349.354C521.535 349.037 520.567 348.878 519.496 348.878L519.479 366.098Z" fill="#EFBA00"/>
<path d="M126.007 209.268C118.16 206.342 108.875 190.537 105.214 183C106.783 186.99 91.7438 202.84 84.0281 210.266C84.9436 209.712 89.0499 207.938 98.1517 205.278C99.721 209.534 83.6358 232.323 75.3971 243.185C77.0971 242.963 82.145 241.921 88.736 239.527C89.6776 242.985 75.0047 260.254 67.5506 268.456C69.5122 268.123 75.554 266.993 84.0281 265.131C85.2086 269.383 78.4199 286.399 60.7585 299.379H77.6161C75.2088 303.481 69.2241 308.578 58 316.697C68.0696 316.364 102.703 317.202 157 318C146.329 316.138 136.599 304.81 133.068 299.379H149.938C137.698 293.527 128.884 274.108 126.007 265.131C126.66 265.131 131.421 265.796 145.23 268.456C137.384 265.264 126.007 247.84 121.299 239.527C121.953 239.86 125.614 241.057 135.03 243.185C127.184 239.993 116.329 216.584 111.883 205.278C112.929 205.611 117.219 206.874 126.007 209.268Z" fill="#001002"/>
<path d="M475.018 362.893L466.752 345.394H477.134L483.136 357.956L487.974 345.394H492.271L484.99 362.893V369.764H475.018V362.893Z" fill="#EFBA00"/>
<path d="M436.838 357.53C436.838 355.682 437.134 353.993 437.724 352.462C438.314 350.92 439.195 349.598 440.364 348.493C441.534 347.389 442.994 346.531 444.743 345.918C446.493 345.306 448.526 345 450.844 345C453.162 345 455.196 345.306 456.945 345.918C458.694 346.531 460.154 347.389 461.324 348.493C462.494 349.598 463.374 350.92 463.964 352.462C464.555 353.993 464.85 355.682 464.85 357.53C464.85 359.399 464.555 361.11 463.964 362.663C463.374 364.216 462.494 365.544 461.324 366.648C460.154 367.753 458.694 368.611 456.945 369.223C455.196 369.835 453.162 370.142 450.844 370.142C448.526 370.142 446.493 369.835 444.743 369.223C442.994 368.611 441.534 367.753 440.364 366.648C439.195 365.544 438.314 364.216 437.724 362.663C437.134 361.11 436.838 359.399 436.838 357.53ZM450.844 366.747C451.5 366.747 452.08 366.632 452.583 366.402C453.086 366.173 453.506 365.724 453.845 365.057C454.184 364.391 454.441 363.456 454.616 362.253C454.791 361.05 454.879 359.476 454.879 357.53C454.879 355.605 454.791 354.047 454.616 352.856C454.441 351.664 454.184 350.74 453.845 350.084C453.506 349.428 453.086 348.985 452.583 348.756C452.08 348.526 451.5 348.411 450.844 348.411C450.188 348.411 449.603 348.526 449.089 348.756C448.586 348.985 448.165 349.428 447.827 350.084C447.488 350.74 447.231 351.664 447.056 352.856C446.881 354.047 446.793 355.605 446.793 357.53C446.793 359.476 446.881 361.05 447.056 362.253C447.231 363.456 447.488 364.391 447.827 365.057C448.165 365.724 448.586 366.173 449.089 366.402C449.603 366.632 450.188 366.747 450.844 366.747Z" fill="#EFBA00"/>
<path d="M409.286 345.394H419.667L425.375 361.056L430.656 345.394L434.936 345.377L426.391 369.764L418.667 369.748L409.286 345.394Z" fill="#EFBA00"/>
<path d="M386.244 345.394H406.842V349.149H395.739L395.723 355.726H404.218V359.481H395.723V366.009H406.842V369.764H386.244V345.394Z" fill="#EFBA00"/>
<path d="M366.252 349.133H359.298V345.377H382.685V349.133H375.731V369.764H366.252V349.133Z" fill="#EFBA00"/>
<path d="M335.698 364.352C336.857 364.943 338.071 365.385 339.339 365.681C340.607 365.976 341.788 366.124 342.881 366.124C344.139 366.124 345.057 365.943 345.637 365.582C346.227 365.221 346.522 364.729 346.522 364.106C346.522 363.909 346.484 363.707 346.407 363.499C346.342 363.292 346.205 363.089 345.997 362.893C345.801 362.685 345.522 362.483 345.161 362.286C344.811 362.078 344.352 361.876 343.783 361.679L340.848 360.679C338.749 359.957 337.169 358.984 336.108 357.759C335.048 356.524 334.517 355.059 334.517 353.364C334.517 352.271 334.747 351.221 335.206 350.215C335.665 349.198 336.36 348.307 337.289 347.542C338.218 346.766 339.388 346.148 340.799 345.689C342.22 345.23 343.882 345 345.784 345C346.725 345 347.627 345.055 348.49 345.164C349.354 345.273 350.163 345.415 350.918 345.59C351.683 345.765 352.383 345.968 353.017 346.197C353.651 346.416 354.209 346.635 354.69 346.853L352.918 350.051C352.569 349.833 352.197 349.641 351.803 349.477C351.42 349.313 351.032 349.177 350.639 349.067C350.256 348.958 349.879 348.876 349.507 348.821C349.135 348.767 348.796 348.739 348.49 348.739C347.966 348.739 347.506 348.81 347.113 348.952C346.719 349.084 346.386 349.264 346.112 349.494C345.85 349.712 345.648 349.964 345.505 350.248C345.374 350.521 345.309 350.795 345.309 351.068C345.309 351.309 345.363 351.544 345.473 351.773C345.593 351.992 345.79 352.211 346.063 352.429C346.347 352.637 346.714 352.85 347.162 353.069C347.621 353.277 348.19 353.495 348.868 353.725L350.836 354.381C352.968 355.092 354.597 356.07 355.723 357.317C356.849 358.563 357.412 360.072 357.412 361.843C357.412 363.046 357.139 364.155 356.592 365.172C356.056 366.189 355.253 367.069 354.181 367.813C353.11 368.545 351.776 369.119 350.18 369.535C348.594 369.939 346.752 370.142 344.653 370.142C343.647 370.142 342.674 370.087 341.733 369.978C340.804 369.879 339.891 369.726 338.995 369.518C338.109 369.311 337.234 369.048 336.371 368.731C335.507 368.414 334.643 368.042 333.779 367.616L335.698 364.352Z" fill="#EFBA00"/>
<path d="M302.553 357.53C302.553 355.682 302.848 353.993 303.439 352.462C304.029 350.92 304.909 349.598 306.079 348.493C307.249 347.389 308.709 346.531 310.458 345.918C312.207 345.306 314.241 345 316.559 345C318.877 345 320.911 345.306 322.66 345.918C324.409 346.531 325.869 347.389 327.039 348.493C328.209 349.598 329.089 350.92 329.679 352.462C330.27 353.993 330.565 355.682 330.565 357.53C330.565 359.399 330.27 361.11 329.679 362.663C329.089 364.216 328.209 365.544 327.039 366.648C325.869 367.753 324.409 368.611 322.66 369.223C320.911 369.835 318.877 370.142 316.559 370.142C314.241 370.142 312.207 369.835 310.458 369.223C308.709 368.611 307.249 367.753 306.079 366.648C304.909 365.544 304.029 364.216 303.439 362.663C302.848 361.11 302.553 359.399 302.553 357.53ZM316.559 366.747C317.215 366.747 317.795 366.632 318.297 366.402C318.8 366.173 319.221 365.724 319.56 365.057C319.899 364.391 320.156 363.456 320.331 362.253C320.506 361.05 320.593 359.476 320.593 357.53C320.593 355.605 320.506 354.047 320.331 352.856C320.156 351.664 319.899 350.74 319.56 350.084C319.221 349.428 318.8 348.985 318.297 348.756C317.795 348.526 317.215 348.411 316.559 348.411C315.903 348.411 315.318 348.526 314.804 348.756C314.301 348.985 313.88 349.428 313.541 350.084C313.202 350.74 312.946 351.664 312.771 352.856C312.596 354.047 312.508 355.605 312.508 357.53C312.508 359.476 312.596 361.05 312.771 362.253C312.946 363.456 313.202 364.391 313.541 365.057C313.88 365.724 314.301 366.173 314.804 366.402C315.318 366.632 315.903 366.747 316.559 366.747Z" fill="#EFBA00"/>
<path d="M273 357.595C273 356.436 273.148 355.321 273.443 354.25C273.749 353.167 274.192 352.161 274.771 351.232C275.351 350.303 276.061 349.455 276.903 348.69C277.745 347.925 278.702 347.269 279.773 346.722C280.856 346.175 282.047 345.754 283.349 345.459C284.65 345.153 286.049 345 287.547 345C288.509 345 289.428 345.06 290.302 345.18C291.188 345.301 292.019 345.47 292.795 345.689C293.571 345.897 294.288 346.143 294.944 346.427C295.61 346.7 296.212 346.99 296.748 347.296L295.337 350.051C294.725 349.756 294.025 349.51 293.238 349.313C292.462 349.106 291.653 349.002 290.811 349.002C289.685 349.002 288.64 349.204 287.678 349.608C286.716 350.013 285.885 350.587 285.185 351.33C284.486 352.074 283.933 352.976 283.529 354.037C283.135 355.086 282.939 356.267 282.939 357.579C282.939 358.88 283.135 360.061 283.529 361.121C283.923 362.171 284.464 363.073 285.153 363.827C285.852 364.571 286.678 365.15 287.629 365.566C288.591 365.97 289.63 366.173 290.745 366.173V357.923H300.306L298.601 361.023V367.649L298.617 367.682C298.081 367.999 297.42 368.305 296.633 368.6C295.846 368.895 294.965 369.163 293.992 369.404C293.03 369.633 292.002 369.819 290.909 369.961C289.816 370.103 288.695 370.174 287.547 370.174C285.306 370.174 283.283 369.846 281.479 369.19C279.686 368.523 278.161 367.621 276.903 366.484C275.646 365.336 274.678 364.002 274 362.483C273.333 360.952 273 359.323 273 357.595Z" fill="#EFBA00"/>
<path d="M396.121 382.016H405.601V397.498C405.601 398.373 405.715 399.133 405.945 399.778C406.186 400.412 406.514 400.942 406.929 401.369C407.356 401.784 407.853 402.096 408.422 402.303C408.99 402.511 409.602 402.615 410.258 402.615C410.98 402.615 411.625 402.511 412.194 402.303C412.773 402.096 413.265 401.779 413.67 401.352C414.074 400.926 414.386 400.39 414.604 399.745C414.823 399.1 414.932 398.34 414.932 397.465V382.016H418.54V396.908C418.54 398.417 418.294 399.778 417.802 400.991C417.321 402.205 416.633 403.244 415.736 404.107C414.839 404.96 413.757 405.616 412.489 406.076C411.22 406.535 409.805 406.764 408.241 406.764C406.109 406.764 404.278 406.54 402.747 406.092C401.216 405.633 399.959 404.982 398.975 404.14C397.991 403.287 397.269 402.26 396.81 401.057C396.351 399.854 396.121 398.499 396.121 396.99V382.016Z" fill="#EFBA00"/>
<path d="M373.768 388.166L370.947 382.016H380.935L392.874 406.404H382.165L380.361 402.5H370.75L368.962 406.404H364.813L373.768 388.166ZM378.639 398.745L375.555 392.053L372.489 398.745H378.639Z" fill="#EFBA00"/>
<path d="M347.035 385.756H340.082V382H363.468V385.756H356.515V406.387H347.035V385.756Z" fill="#EFBA00"/>
<path d="M320.303 388.166L317.482 382.016H327.47L339.409 406.404H328.7L326.896 402.5H317.285L315.498 406.404H311.349L320.303 388.166ZM325.174 398.745L322.091 392.053L319.024 398.745H325.174Z" fill="#EFBA00"/>
<path d="M276.104 382.016H282.812L292.029 394.776L300.787 382.016H307.314V406.387H297.851V393.939L288.765 406.699L279.712 393.939V406.387H276.104V382.016Z" fill="#EFBA00"/>
<path d="M253.406 382.016H262.902L262.886 402.631H272.201V406.387H253.406V382.016Z" fill="#EFBA00"/>
<path d="M230.955 388.166L228.134 382.016H238.121L250.061 406.404H239.351L237.547 402.5H227.937L226.149 406.404H222L230.955 388.166ZM235.825 398.745L232.742 392.053L229.675 398.745H235.825Z" fill="#EFBA00"/>
<path d="M162 264H144L247.5 165.5L255.5 174.5L162 264Z" fill="#636363"/>
<path d="M483 188L474.5 195.5L546 265.5L558 262.5L483 188Z" fill="#636363"/>
<path d="M596.297 251.892H608.522L613.306 279H592.577L596.297 251.892Z" fill="#210C00"/>
<path d="M620.039 182.616C613.804 180.208 606.426 167.202 603.516 161C604.763 164.283 592.813 177.326 586.682 183.437C587.41 182.981 590.673 181.522 597.905 179.333C599.152 182.835 586.371 201.587 579.824 210.525C581.175 210.343 585.186 209.486 590.423 207.516C591.171 210.361 579.512 224.571 573.589 231.321C575.148 231.047 579.949 230.117 586.682 228.584C587.62 232.083 582.226 246.086 568.192 256.767H581.587C579.674 260.143 574.919 264.336 566 271.018C574.001 270.744 601.521 271.433 644.667 272.09C636.187 270.558 628.456 261.236 625.65 256.767H639.055C629.329 251.952 622.325 235.972 620.039 228.584C620.558 228.584 624.341 229.132 635.314 231.321C629.079 228.694 620.039 214.356 616.298 207.516C616.818 207.789 619.727 208.774 627.209 210.525C620.974 207.899 612.349 188.636 608.816 179.333C609.647 179.606 613.056 180.646 620.039 182.616Z" fill="#001602"/>
<path d="M620 237H643L651 287L612 286.5L620 237Z" fill="#2D1000"/>
<path d="M664.666 106.667C652.936 102.137 639.056 77.6683 633.582 66C635.928 72.1773 613.445 96.7151 601.911 108.212C603.279 107.354 609.418 104.608 623.025 100.49C625.371 107.079 601.324 142.359 589.008 159.175C591.549 158.832 599.096 157.219 608.949 153.512C610.356 158.866 588.421 185.6 577.278 198.298C580.21 197.783 589.242 196.033 601.911 193.15C603.675 199.733 593.527 226.076 567.124 246.172H592.325C588.726 252.523 579.78 260.413 563 272.983C578.054 272.468 629.828 273.765 711 275C695.047 272.117 680.502 254.58 675.223 246.172H700.443C682.144 237.112 668.967 207.049 664.666 193.15C665.644 193.15 672.76 194.18 693.405 198.298C681.675 193.356 664.666 166.382 657.628 153.512C658.606 154.027 664.08 155.88 678.156 159.175C666.426 154.233 650.199 117.993 643.552 100.49C645.116 101.005 651.529 102.961 664.666 106.667Z" fill="#003705"/>
<path d="M98.3016 150.559C87.9982 145.596 75.8058 118.785 70.9976 106C73.0582 112.768 53.31 139.654 43.1784 152.251C44.3804 151.311 49.7725 148.303 61.7245 143.791C63.7852 151.01 42.6632 189.666 31.8446 208.091C34.077 207.715 40.7056 205.948 49.3604 201.887C50.5968 207.753 31.3295 237.045 21.5412 250.958C24.1171 250.394 32.0507 248.476 43.1784 245.318C44.7285 252.531 35.814 281.395 12.6223 303.414H34.7585C31.5975 310.372 23.7388 319.017 9 332.79C22.2227 332.226 67.7005 333.646 139 335C124.987 331.841 112.211 312.626 107.575 303.414H129.727C113.654 293.487 102.079 260.547 98.3016 245.318C99.1602 245.318 105.411 246.446 123.545 250.958C113.241 245.543 98.3016 215.988 92.1195 201.887C92.9781 202.451 97.7864 204.481 110.15 208.091C99.8471 202.676 85.594 162.968 79.7554 143.791C81.1292 144.355 86.7617 146.498 98.3016 150.559Z" fill="#003705"/>
<path d="M0 414.339H153C229.4 299.139 538.5 282.672 683.5 288.839L561 279.339L467 275.839C402.167 272.839 243.5 276.239 127.5 313.839C43.9 339.439 7.66667 391.505 0 414.339Z" fill="#004C08"/>
<path d="M344 129.5V120H351V129.5H344Z" fill="#A1A1A1"/>
<path d="M354 129.5V120H361V129.5H354Z" fill="#A1A1A1"/>
<path d="M344 141V131.5H351V141H344Z" fill="#A1A1A1"/>
<path d="M354 141V131.5H361V141H354Z" fill="#A1A1A1"/>
<path d="M303 138L347.697 97L349.636 102.5L312 138H303Z" fill="#636363"/>
</svg>
