<svg width="216" height="52" viewBox="0 0 216 52" fill="none" xmlns="http://www.w3.org/2000/svg">
<path d="M10.92 19.364C9.48133 19.364 8.14667 19.1387 6.916 18.688C5.68533 18.22 4.61933 17.5613 3.718 16.712C2.834 15.8627 2.14067 14.866 1.638 13.722C1.13533 12.5607 0.884 11.2867 0.884 9.9C0.884 8.51333 1.13533 7.248 1.638 6.104C2.14067 4.94267 2.84267 3.93733 3.744 3.088C4.64533 2.23867 5.71133 1.58867 6.942 1.138C8.19 0.669999 9.55067 0.435999 11.024 0.435999C12.74 0.435999 14.274 0.721999 15.626 1.294C16.978 1.866 18.096 2.68933 18.98 3.764L15.704 6.728C15.08 6.052 14.404 5.54933 13.676 5.22C12.9653 4.87333 12.168 4.7 11.284 4.7C10.504 4.7 9.79333 4.82133 9.152 5.064C8.51067 5.30667 7.96467 5.662 7.514 6.13C7.06333 6.58067 6.708 7.12667 6.448 7.768C6.20533 8.392 6.084 9.10267 6.084 9.9C6.084 10.6627 6.20533 11.3647 6.448 12.006C6.708 12.6473 7.06333 13.202 7.514 13.67C7.96467 14.1207 8.502 14.476 9.126 14.736C9.76733 14.9787 10.4693 15.1 11.232 15.1C11.9947 15.1 12.74 14.9787 13.468 14.736C14.196 14.476 14.9327 14.0427 15.678 13.436L18.564 17.05C17.524 17.7953 16.3193 18.3673 14.95 18.766C13.5807 19.1647 12.2373 19.364 10.92 19.364ZM14.014 16.374V9.51H18.564V17.05L14.014 16.374ZM28.6658 19.234C27.1231 19.234 25.7538 18.922 24.5578 18.298C23.3618 17.674 22.4171 16.816 21.7238 15.724C21.0478 14.6147 20.7098 13.3493 20.7098 11.928C20.7098 10.5067 21.0478 9.25 21.7238 8.158C22.4171 7.066 23.3618 6.21667 24.5578 5.61C25.7538 4.986 27.1231 4.674 28.6658 4.674C30.2085 4.674 31.5778 4.986 32.7738 5.61C33.9871 6.21667 34.9318 7.066 35.6078 8.158C36.2838 9.25 36.6218 10.5067 36.6218 11.928C36.6218 13.3493 36.2838 14.6147 35.6078 15.724C34.9318 16.816 33.9871 17.674 32.7738 18.298C31.5778 18.922 30.2085 19.234 28.6658 19.234ZM28.6658 15.308C29.2378 15.308 29.7405 15.178 30.1738 14.918C30.6245 14.658 30.9798 14.2767 31.2398 13.774C31.4998 13.254 31.6298 12.6387 31.6298 11.928C31.6298 11.2173 31.4998 10.6193 31.2398 10.134C30.9798 9.63133 30.6245 9.25 30.1738 8.99C29.7405 8.73 29.2378 8.6 28.6658 8.6C28.1111 8.6 27.6085 8.73 27.1578 8.99C26.7245 9.25 26.3691 9.63133 26.0918 10.134C25.8318 10.6193 25.7018 11.2173 25.7018 11.928C25.7018 12.6387 25.8318 13.254 26.0918 13.774C26.3691 14.2767 26.7245 14.658 27.1578 14.918C27.6085 15.178 28.1111 15.308 28.6658 15.308ZM44.0322 19.234C42.8362 19.234 41.6662 19.0953 40.5222 18.818C39.3956 18.5407 38.4856 18.194 37.7922 17.778L39.2742 14.398C39.9329 14.7967 40.7042 15.1173 41.5882 15.36C42.4722 15.5853 43.3389 15.698 44.1882 15.698C45.0202 15.698 45.5922 15.6113 45.9042 15.438C46.2336 15.2647 46.3982 15.0307 46.3982 14.736C46.3982 14.4587 46.2422 14.2593 45.9302 14.138C45.6356 13.9993 45.2369 13.8953 44.7342 13.826C44.2489 13.7567 43.7116 13.6787 43.1222 13.592C42.5329 13.5053 41.9349 13.3927 41.3282 13.254C40.7389 13.098 40.1929 12.8727 39.6902 12.578C39.2049 12.266 38.8149 11.85 38.5202 11.33C38.2256 10.81 38.0782 10.1513 38.0782 9.354C38.0782 8.45267 38.3382 7.65533 38.8582 6.962C39.3956 6.25133 40.1756 5.69667 41.1982 5.298C42.2209 4.882 43.4689 4.674 44.9422 4.674C45.9302 4.674 46.9269 4.778 47.9322 4.986C48.9549 5.17667 49.8129 5.47133 50.5062 5.87L49.0242 9.224C48.3309 8.82533 47.6376 8.55667 46.9442 8.418C46.2509 8.262 45.5922 8.184 44.9682 8.184C44.1362 8.184 43.5469 8.27933 43.2002 8.47C42.8709 8.66067 42.7062 8.89467 42.7062 9.172C42.7062 9.44933 42.8536 9.666 43.1482 9.822C43.4429 9.96067 43.8329 10.0733 44.3182 10.16C44.8209 10.2293 45.3669 10.3073 45.9562 10.394C46.5456 10.4633 47.1349 10.576 47.7242 10.732C48.3309 10.888 48.8769 11.122 49.3622 11.434C49.8649 11.7287 50.2636 12.136 50.5582 12.656C50.8529 13.1587 51.0002 13.8087 51.0002 14.606C51.0002 15.4727 50.7316 16.2527 50.1942 16.946C49.6742 17.6393 48.8942 18.194 47.8542 18.61C46.8316 19.026 45.5576 19.234 44.0322 19.234ZM59.421 19.234C57.6183 19.234 56.2143 18.792 55.209 17.908C54.2036 17.0067 53.701 15.6547 53.701 13.852V1.762H58.641V13.8C58.641 14.3027 58.7796 14.7013 59.057 14.996C59.3343 15.2733 59.6896 15.412 60.123 15.412C60.7123 15.412 61.215 15.2647 61.631 14.97L62.853 18.428C62.437 18.7053 61.9256 18.9047 61.319 19.026C60.7123 19.1647 60.0796 19.234 59.421 19.234ZM51.647 9.12V5.428H61.865V9.12H51.647ZM71.7356 19.234C70.0716 19.234 68.6156 18.922 67.3676 18.298C66.137 17.6567 65.175 16.79 64.4816 15.698C63.8056 14.5887 63.4676 13.332 63.4676 11.928C63.4676 10.524 63.797 9.276 64.4556 8.184C65.1316 7.07467 66.059 6.21667 67.2376 5.61C68.4163 4.986 69.7423 4.674 71.2156 4.674C72.6023 4.674 73.8676 4.96 75.0116 5.532C76.1556 6.08667 77.0656 6.91 77.7416 8.002C78.4176 9.094 78.7556 10.42 78.7556 11.98C78.7556 12.1533 78.747 12.3527 78.7296 12.578C78.7123 12.8033 78.695 13.0113 78.6776 13.202H67.5236V10.602H76.0516L74.1796 11.33C74.197 10.6887 74.0756 10.134 73.8156 9.666C73.573 9.198 73.2263 8.834 72.7756 8.574C72.3423 8.314 71.831 8.184 71.2416 8.184C70.6523 8.184 70.1323 8.314 69.6816 8.574C69.2483 8.834 68.9103 9.20667 68.6676 9.692C68.425 10.16 68.3036 10.7147 68.3036 11.356V12.11C68.3036 12.8033 68.4423 13.4013 68.7196 13.904C69.0143 14.4067 69.4303 14.7967 69.9676 15.074C70.505 15.334 71.1463 15.464 71.8916 15.464C72.585 15.464 73.1743 15.3687 73.6596 15.178C74.1623 14.97 74.6563 14.658 75.1416 14.242L77.7416 16.946C77.0656 17.6913 76.2336 18.2633 75.2456 18.662C74.2576 19.0433 73.0876 19.234 71.7356 19.234ZM84.7054 19L78.9074 4.908H83.9774L88.6054 16.686H86.0574L90.9194 4.908H95.6254L89.8014 19H84.7054ZM103.594 19.234C102.051 19.234 100.682 18.922 99.4855 18.298C98.2895 17.674 97.3449 16.816 96.6515 15.724C95.9755 14.6147 95.6375 13.3493 95.6375 11.928C95.6375 10.5067 95.9755 9.25 96.6515 8.158C97.3449 7.066 98.2895 6.21667 99.4855 5.61C100.682 4.986 102.051 4.674 103.594 4.674C105.136 4.674 106.506 4.986 107.702 5.61C108.915 6.21667 109.86 7.066 110.536 8.158C111.212 9.25 111.55 10.5067 111.55 11.928C111.55 13.3493 111.212 14.6147 110.536 15.724C109.86 16.816 108.915 17.674 107.702 18.298C106.506 18.922 105.136 19.234 103.594 19.234ZM103.594 15.308C104.166 15.308 104.668 15.178 105.102 14.918C105.552 14.658 105.908 14.2767 106.168 13.774C106.428 13.254 106.558 12.6387 106.558 11.928C106.558 11.2173 106.428 10.6193 106.168 10.134C105.908 9.63133 105.552 9.25 105.102 8.99C104.668 8.73 104.166 8.6 103.594 8.6C103.039 8.6 102.536 8.73 102.086 8.99C101.652 9.25 101.297 9.63133 101.02 10.134C100.76 10.6193 100.63 11.2173 100.63 11.928C100.63 12.6387 100.76 13.254 101.02 13.774C101.297 14.2767 101.652 14.658 102.086 14.918C102.536 15.178 103.039 15.308 103.594 15.308ZM115.875 24.278C115.13 24.278 114.376 24.1567 113.613 23.914C112.868 23.6887 112.261 23.3853 111.793 23.004L113.509 19.546C113.804 19.806 114.142 20.0053 114.523 20.144C114.922 20.3 115.312 20.378 115.693 20.378C116.23 20.378 116.655 20.2567 116.967 20.014C117.279 19.7713 117.548 19.39 117.773 18.87L118.423 17.232L118.813 16.738L123.597 4.908H128.303L122.219 19.572C121.734 20.7853 121.17 21.73 120.529 22.406C119.905 23.0993 119.203 23.5847 118.423 23.862C117.66 24.1393 116.811 24.278 115.875 24.278ZM117.799 19.598L111.585 4.908H116.655L121.231 16.296L117.799 19.598ZM1.82 51V32.8H10.426C12.4367 32.8 14.2047 33.1727 15.73 33.918C17.2553 34.6633 18.4427 35.712 19.292 37.064C20.1587 38.416 20.592 40.028 20.592 41.9C20.592 43.7547 20.1587 45.3667 19.292 46.736C18.4427 48.088 17.2553 49.1367 15.73 49.882C14.2047 50.6273 12.4367 51 10.426 51H1.82ZM6.968 46.892H10.218C11.258 46.892 12.1593 46.7013 12.922 46.32C13.702 45.9213 14.3087 45.3493 14.742 44.604C15.1753 43.8413 15.392 42.94 15.392 41.9C15.392 40.8427 15.1753 39.9413 14.742 39.196C14.3087 38.4507 13.702 37.8873 12.922 37.506C12.1593 37.1073 11.258 36.908 10.218 36.908H6.968V46.892ZM30.1385 51.234C28.5958 51.234 27.2265 50.922 26.0305 50.298C24.8345 49.674 23.8898 48.816 23.1965 47.724C22.5205 46.6147 22.1825 45.3493 22.1825 43.928C22.1825 42.5067 22.5205 41.25 23.1965 40.158C23.8898 39.066 24.8345 38.2167 26.0305 37.61C27.2265 36.986 28.5958 36.674 30.1385 36.674C31.6811 36.674 33.0505 36.986 34.2465 37.61C35.4598 38.2167 36.4045 39.066 37.0805 40.158C37.7565 41.25 38.0945 42.5067 38.0945 43.928C38.0945 45.3493 37.7565 46.6147 37.0805 47.724C36.4045 48.816 35.4598 49.674 34.2465 50.298C33.0505 50.922 31.6811 51.234 30.1385 51.234ZM30.1385 47.308C30.7105 47.308 31.2131 47.178 31.6465 46.918C32.0971 46.658 32.4525 46.2767 32.7125 45.774C32.9725 45.254 33.1025 44.6387 33.1025 43.928C33.1025 43.2173 32.9725 42.6193 32.7125 42.134C32.4525 41.6313 32.0971 41.25 31.6465 40.99C31.2131 40.73 30.7105 40.6 30.1385 40.6C29.5838 40.6 29.0811 40.73 28.6305 40.99C28.1971 41.25 27.8418 41.6313 27.5645 42.134C27.3045 42.6193 27.1745 43.2173 27.1745 43.928C27.1745 44.6387 27.3045 45.254 27.5645 45.774C27.8418 46.2767 28.1971 46.658 28.6305 46.918C29.0811 47.178 29.5838 47.308 30.1385 47.308ZM58.7389 36.674C59.8309 36.674 60.8015 36.8993 61.6509 37.35C62.5175 37.7833 63.1935 38.4593 63.6789 39.378C64.1815 40.2967 64.4329 41.484 64.4329 42.94V51H59.4929V43.746C59.4929 42.7407 59.3022 42.0127 58.9209 41.562C58.5395 41.094 58.0195 40.86 57.3609 40.86C56.8929 40.86 56.4682 40.9727 56.0869 41.198C55.7055 41.4233 55.4109 41.77 55.2029 42.238C54.9949 42.6887 54.8909 43.278 54.8909 44.006V51H49.9509V43.746C49.9509 42.7407 49.7602 42.0127 49.3789 41.562C49.0149 41.094 48.4949 40.86 47.8189 40.86C47.3335 40.86 46.9002 40.9727 46.5189 41.198C46.1549 41.4233 45.8602 41.77 45.6349 42.238C45.4269 42.6887 45.3229 43.278 45.3229 44.006V51H40.3829V36.908H45.0889V40.834L44.1529 39.716C44.6729 38.7107 45.3835 37.9567 46.2849 37.454C47.1862 36.934 48.1915 36.674 49.3009 36.674C50.5662 36.674 51.6755 37.0033 52.6289 37.662C53.5995 38.3033 54.2495 39.3087 54.5789 40.678L52.9669 40.34C53.4695 39.196 54.2235 38.3033 55.2289 37.662C56.2515 37.0033 57.4215 36.674 58.7389 36.674ZM67.5508 51V36.908H72.4908V51H67.5508ZM70.0208 35.348C69.1195 35.348 68.3915 35.0967 67.8368 34.594C67.2822 34.0913 67.0048 33.4673 67.0048 32.722C67.0048 31.9767 67.2822 31.3527 67.8368 30.85C68.3915 30.3473 69.1195 30.096 70.0208 30.096C70.9222 30.096 71.6502 30.3387 72.2048 30.824C72.7595 31.292 73.0368 31.8987 73.0368 32.644C73.0368 33.424 72.7595 34.074 72.2048 34.594C71.6675 35.0967 70.9395 35.348 70.0208 35.348ZM79.8092 48.4L79.9392 42.498L85.6852 36.908H91.5352L85.1652 43.486L82.6432 45.514L79.8092 48.4ZM75.7012 51V31.708H80.6412V51H75.7012ZM86.0492 51L81.7332 45.592L84.8012 41.796L92.0292 51H86.0492ZM99.1419 51L107.176 32.8H112.246L120.306 51H114.95L108.658 35.322H110.686L104.394 51H99.1419ZM103.536 47.464L104.862 43.668H113.754L115.08 47.464H103.536ZM121.531 51V31.708H126.471V51H121.531ZM148.038 36.674C149.13 36.674 150.1 36.8993 150.95 37.35C151.816 37.7833 152.492 38.4593 152.978 39.378C153.48 40.2967 153.732 41.484 153.732 42.94V51H148.792V43.746C148.792 42.7407 148.601 42.0127 148.22 41.562C147.838 41.094 147.318 40.86 146.66 40.86C146.192 40.86 145.767 40.9727 145.386 41.198C145.004 41.4233 144.71 41.77 144.502 42.238C144.294 42.6887 144.19 43.278 144.19 44.006V51H139.25V43.746C139.25 42.7407 139.059 42.0127 138.678 41.562C138.314 41.094 137.794 40.86 137.118 40.86C136.632 40.86 136.199 40.9727 135.818 41.198C135.454 41.4233 135.159 41.77 134.934 42.238C134.726 42.6887 134.622 43.278 134.622 44.006V51H129.682V36.908H134.388V40.834L133.452 39.716C133.972 38.7107 134.682 37.9567 135.584 37.454C136.485 36.934 137.49 36.674 138.6 36.674C139.865 36.674 140.974 37.0033 141.928 37.662C142.898 38.3033 143.548 39.3087 143.878 40.678L142.266 40.34C142.768 39.196 143.522 38.3033 144.528 37.662C145.55 37.0033 146.72 36.674 148.038 36.674ZM165.456 51V48.374L165.118 47.724V42.888C165.118 42.108 164.875 41.51 164.39 41.094C163.922 40.6607 163.168 40.444 162.128 40.444C161.452 40.444 160.767 40.5567 160.074 40.782C159.38 40.99 158.791 41.2847 158.306 41.666L156.642 38.312C157.439 37.792 158.392 37.3933 159.502 37.116C160.628 36.8213 161.746 36.674 162.856 36.674C165.144 36.674 166.912 37.2027 168.16 38.26C169.425 39.3 170.058 40.938 170.058 43.174V51H165.456ZM161.296 51.234C160.169 51.234 159.216 51.0433 158.436 50.662C157.656 50.2807 157.058 49.7607 156.642 49.102C156.243 48.4433 156.044 47.7067 156.044 46.892C156.044 46.0253 156.26 45.28 156.694 44.656C157.144 44.0147 157.829 43.5293 158.748 43.2C159.666 42.8533 160.854 42.68 162.31 42.68H165.638V45.254H162.986C162.188 45.254 161.625 45.384 161.296 45.644C160.984 45.904 160.828 46.2507 160.828 46.684C160.828 47.1173 160.992 47.464 161.322 47.724C161.651 47.984 162.102 48.114 162.674 48.114C163.211 48.114 163.696 47.984 164.13 47.724C164.58 47.4467 164.91 47.0307 165.118 46.476L165.794 48.296C165.534 49.2667 165.022 50.0033 164.26 50.506C163.514 50.9913 162.526 51.234 161.296 51.234ZM179.468 51.234C177.665 51.234 176.261 50.792 175.256 49.908C174.251 49.0067 173.748 47.6547 173.748 45.852V33.762H178.688V45.8C178.688 46.3027 178.827 46.7013 179.104 46.996C179.381 47.2733 179.737 47.412 180.17 47.412C180.759 47.412 181.262 47.2647 181.678 46.97L182.9 50.428C182.484 50.7053 181.973 50.9047 181.366 51.026C180.759 51.1647 180.127 51.234 179.468 51.234ZM171.694 41.12V37.428H181.912V41.12H171.694ZM193.411 51V48.374L193.073 47.724V42.888C193.073 42.108 192.83 41.51 192.345 41.094C191.877 40.6607 191.123 40.444 190.083 40.444C189.407 40.444 188.722 40.5567 188.029 40.782C187.335 40.99 186.746 41.2847 186.261 41.666L184.597 38.312C185.394 37.792 186.347 37.3933 187.457 37.116C188.583 36.8213 189.701 36.674 190.811 36.674C193.099 36.674 194.867 37.2027 196.115 38.26C197.38 39.3 198.013 40.938 198.013 43.174V51H193.411ZM189.251 51.234C188.124 51.234 187.171 51.0433 186.391 50.662C185.611 50.2807 185.013 49.7607 184.597 49.102C184.198 48.4433 183.999 47.7067 183.999 46.892C183.999 46.0253 184.215 45.28 184.649 44.656C185.099 44.0147 185.784 43.5293 186.703 43.2C187.621 42.8533 188.809 42.68 190.265 42.68H193.593V45.254H190.941C190.143 45.254 189.58 45.384 189.251 45.644C188.939 45.904 188.783 46.2507 188.783 46.684C188.783 47.1173 188.947 47.464 189.277 47.724C189.606 47.984 190.057 48.114 190.629 48.114C191.166 48.114 191.651 47.984 192.085 47.724C192.535 47.4467 192.865 47.0307 193.073 46.476L193.749 48.296C193.489 49.2667 192.977 50.0033 192.215 50.506C191.469 50.9913 190.481 51.234 189.251 51.234ZM207.059 51.234C205.915 51.234 204.884 51.0087 203.965 50.558C203.064 50.1073 202.353 49.4053 201.833 48.452C201.33 47.4813 201.079 46.2593 201.079 44.786V36.908H206.019V43.98C206.019 45.072 206.218 45.852 206.617 46.32C207.033 46.788 207.614 47.022 208.359 47.022C208.844 47.022 209.286 46.9093 209.685 46.684C210.084 46.4587 210.404 46.1033 210.647 45.618C210.89 45.1153 211.011 44.474 211.011 43.694V36.908H215.951V51H211.245V47.022L212.155 48.14C211.67 49.18 210.968 49.96 210.049 50.48C209.13 50.9827 208.134 51.234 207.059 51.234Z" fill="#585858"/>
</svg>
