<svg width="137" height="80" viewBox="0 0 137 80" fill="none" xmlns="http://www.w3.org/2000/svg">
<path fill-rule="evenodd" clip-rule="evenodd" d="M40.607 14.2155C40.607 18.1155 37.4459 21.2763 33.5458 21.2763C29.6458 21.2763 26.4846 18.1155 26.4846 14.2155C26.4846 10.3155 29.6458 7.1543 33.5458 7.1543C37.4459 7.1543 40.607 10.3155 40.607 14.2155Z" fill="white"/>
<path d="M40.2237 6.23595C41.3769 5.88842 42.5158 5.54448 42.3574 2.87891C41.3307 3.28336 40.2675 3.81241 39.5159 4.521C38.7941 5.20172 38.3602 6.05163 38.5314 7.11929C38.988 6.60855 39.6078 6.42146 40.2237 6.23595Z" fill="white"/>
<path d="M32.5484 3.88251C33.118 2.82123 33.6805 1.77307 31.6837 0C31.2435 1.01193 30.8657 2.13811 30.8354 3.17034C30.8064 4.16196 31.1006 5.06959 31.9763 5.70374C31.9381 5.01983 32.2443 4.44898 32.5484 3.88251Z" fill="white"/>
<path d="M25.4923 7.61632C25.1448 6.46307 24.8008 5.32416 22.1353 5.48259C22.5397 6.50925 23.0688 7.57253 23.7773 8.32411C24.4581 9.04584 25.308 9.47975 26.3756 9.30857C25.8649 8.85197 25.6778 8.23216 25.4923 7.61632Z" fill="white"/>
<path d="M23.1511 15.2552C22.0898 14.6855 21.0416 14.123 19.2686 16.1198C20.2805 16.5601 21.4067 16.9379 22.4389 16.9681C23.4305 16.9972 24.3381 16.703 24.9723 15.8272C24.2884 15.8654 23.7175 15.5593 23.1511 15.2552Z" fill="white"/>
<path d="M26.9032 22.3199C25.7499 22.6674 24.611 23.0113 24.7695 25.6769C25.7961 25.2725 26.8594 24.7434 27.611 24.0348C28.3327 23.3541 28.7666 22.5042 28.5954 21.4365C28.1388 21.9473 27.519 22.1344 26.9032 22.3199Z" fill="white"/>
<path d="M34.5301 24.6728C33.9604 25.7341 33.3979 26.7822 35.3947 28.5553C35.835 27.5434 36.2128 26.4172 36.243 25.385C36.2721 24.3933 35.9779 23.4857 35.1021 22.8516C35.1403 23.5355 34.8342 24.1063 34.5301 24.6728Z" fill="white"/>
<path d="M41.6014 20.9366C41.9489 22.0898 42.2928 23.2287 44.9584 23.0703C44.554 22.0436 44.0249 20.9803 43.3163 20.2288C42.6356 19.507 41.7857 19.0731 40.718 19.2443C41.2288 19.7009 41.4159 20.3207 41.6014 20.9366Z" fill="white"/>
<path d="M43.9233 13.3047C44.9846 13.8744 46.0327 14.4369 47.8058 12.4401C46.7939 11.9998 45.6677 11.622 44.6355 11.5918C43.6438 11.5627 42.7362 11.8569 42.1021 12.7327C42.786 12.6945 43.3568 13.0006 43.9233 13.3047Z" fill="white"/>
<path d="M26.0127 50.9654H21.1956L47.7863 25.8199L73.6062 34.4908L61.6597 44.6068L47.7863 31.1187L26.0127 50.9654Z" fill="white"/>
<path d="M56.4572 28.0358L53.4705 26.3979L66.8622 13.3916L78.038 16.9563L91.7188 29.2882L81.9881 32.5639L67.1512 18.2088L56.4572 28.0358Z" fill="white"/>
<path d="M92.8749 30.5407L74.955 35.0688L57.2279 50.0984H75.9185L92.4895 35.2615L109.061 50.4837L113.492 50.0984L92.8749 30.5407Z" fill="white"/>
<path d="M42.3914 42.4873V46.4374H45.9561V42.4873H42.3914Z" fill="white"/>
<path d="M45.9561 47.4971H42.3914V51.3509H45.9561V47.4971Z" fill="white"/>
<path d="M46.9195 42.4873V46.4374H50.4842L50.3878 42.4873H46.9195Z" fill="white"/>
<path d="M46.9195 51.3509V47.4971H50.3878L50.4842 51.3509H46.9195Z" fill="white"/>
<path d="M87.9617 42.8727V45.8593H90.7556V42.8727H87.9617Z" fill="white"/>
<path d="M91.6227 42.8727V45.8593H94.4167V42.8727H91.6227Z" fill="white"/>
<path d="M94.4167 46.6301H91.6227V49.6167H94.4167V46.6301Z" fill="white"/>
<path d="M87.9617 46.6301H90.7556V49.6167H87.9617V46.6301Z" fill="white"/>
<path d="M11.1758 58.3838H17.2845V66.0522L11.1758 71.3511V58.3838Z" fill="#2D1000"/>
<path d="M22.1589 59.7324H19.2686V63.2648L22.1589 65.7057V59.7324Z" fill="#2D1000"/>
<path d="M120.567 66.5527H122.394V69.2736L124.426 66.5527H125.339L123.841 68.5689L125.803 71.2518H123.746L122.697 69.776L122.394 70.1932V71.2486H120.567V66.5527Z" fill="white"/>
<path d="M117.581 66.5527H119.411L119.408 71.2486H117.581V66.5527Z" fill="white"/>
<path d="M110.412 66.5527H111.704L113.48 69.0113L115.168 66.5527H116.425V71.2486H114.602V68.8501L112.851 71.3087L111.107 68.8501V71.2486H110.412V66.5527Z" fill="white"/>
<path d="M103.858 68.8909C103.858 68.5348 103.915 68.2094 104.029 67.9144C104.143 67.6174 104.312 67.3624 104.538 67.1497C104.763 66.9369 105.044 66.7715 105.381 66.6535C105.718 66.5356 106.11 66.4766 106.557 66.4766C107.004 66.4766 107.395 66.5356 107.732 66.6535C108.07 66.7715 108.351 66.9369 108.576 67.1497C108.802 67.3624 108.971 67.6174 109.085 67.9144C109.199 68.2094 109.256 68.5348 109.256 68.8909C109.256 69.2511 109.199 69.5808 109.085 69.88C108.971 70.1791 108.802 70.4351 108.576 70.6479C108.351 70.8607 108.07 71.0261 107.732 71.144C107.395 71.262 107.004 71.321 106.557 71.321C106.11 71.321 105.718 71.262 105.381 71.144C105.044 71.0261 104.763 70.8607 104.538 70.6479C104.312 70.4351 104.143 70.1791 104.029 69.88C103.915 69.5808 103.858 69.2511 103.858 68.8909ZM106.557 70.6669C106.683 70.6669 106.795 70.6447 106.892 70.6005C106.989 70.5563 107.07 70.4699 107.135 70.3414C107.2 70.2129 107.25 70.0327 107.284 69.801C107.317 69.5692 107.334 69.2659 107.334 68.8909C107.334 68.5201 107.317 68.2199 107.284 67.9903C107.25 67.7606 107.2 67.5826 107.135 67.4562C107.07 67.3298 106.989 67.2445 106.892 67.2002C106.795 67.156 106.683 67.1339 106.557 67.1339C106.43 67.1339 106.318 67.156 106.219 67.2002C106.122 67.2445 106.041 67.3298 105.975 67.4562C105.91 67.5826 105.861 67.7606 105.827 67.9903C105.793 68.2199 105.776 68.5201 105.776 68.8909C105.776 69.2659 105.793 69.5692 105.827 69.801C105.861 70.0327 105.91 70.2129 105.975 70.3414C106.041 70.4699 106.122 70.5563 106.219 70.6005C106.318 70.6447 106.43 70.6669 106.557 70.6669Z" fill="white"/>
<path d="M98.27 66.5352H100.201C100.744 66.5352 101.215 66.5868 101.613 66.69C102.012 66.7911 102.341 66.9407 102.603 67.1387C102.864 67.3368 103.058 67.5801 103.184 67.8687C103.31 68.1573 103.374 68.4881 103.374 68.861C103.374 69.1939 103.31 69.5046 103.184 69.7932C103.058 70.0797 102.864 70.3304 102.603 70.5453C102.341 70.7581 102.012 70.9256 101.613 71.0478C101.215 71.17 100.744 71.2311 100.201 71.2311H98.27V66.5352ZM100.097 70.5422C100.307 70.5422 100.497 70.5095 100.665 70.4442C100.834 70.3789 100.976 70.2778 101.092 70.1408C101.21 70.0039 101.3 69.8301 101.361 69.6194C101.424 69.4066 101.455 69.1528 101.455 68.8578C101.455 68.565 101.424 68.3153 101.361 68.1089C101.297 67.9024 101.207 67.7339 101.089 67.6033C100.971 67.4705 100.828 67.3747 100.659 67.3157C100.493 67.2546 100.306 67.2241 100.1 67.2241L100.097 70.5422Z" fill="white"/>
<path d="M24.2797 40.3233C22.7678 39.7595 20.9787 36.714 20.2732 35.2617C20.5756 36.0306 17.6778 39.0846 16.1911 40.5155C16.3674 40.4087 17.1587 40.067 18.9125 39.5544C19.2149 40.3746 16.1155 44.7655 14.528 46.8585C14.8555 46.8158 15.8282 46.615 17.0982 46.1537C17.2796 46.8201 14.4524 50.1475 13.0161 51.7279C13.394 51.6638 14.5582 51.4459 16.1911 51.0872C16.4185 51.9065 15.1104 55.1852 11.7073 57.6864H14.9555C14.4917 58.4769 13.3385 59.4588 11.1758 61.0233C13.1161 60.9592 19.7894 61.1206 30.2517 61.2744C28.1955 60.9156 26.3208 58.7329 25.6404 57.6864H28.891C26.5325 56.5588 24.8341 52.8171 24.2797 51.0872C24.4057 51.0872 25.3229 51.2153 27.9839 51.7279C26.472 51.1128 24.2797 47.7555 23.3726 46.1537C23.4986 46.2178 24.2041 46.4484 26.0184 46.8585C24.5065 46.2434 22.415 41.7328 21.5583 39.5544C21.7599 39.6185 22.5864 39.862 24.2797 40.3233Z" fill="#001002"/>
<path d="M91.5295 69.9246L89.9368 66.5527H91.9371L93.0937 68.9734L94.0259 66.5527H94.8539L93.4508 69.9246V71.2486H91.5295V69.9246Z" fill="white"/>
<path d="M84.1726 68.8909C84.1726 68.5348 84.2295 68.2094 84.3433 67.9144C84.457 67.6174 84.6266 67.3624 84.852 67.1497C85.0774 66.9369 85.3587 66.7715 85.6958 66.6535C86.0329 66.5356 86.4247 66.4766 86.8713 66.4766C87.318 66.4766 87.7098 66.5356 88.0469 66.6535C88.384 66.7715 88.6652 66.9369 88.8906 67.1497C89.1161 67.3624 89.2857 67.6174 89.3994 67.9144C89.5132 68.2094 89.5701 68.5348 89.5701 68.8909C89.5701 69.2511 89.5132 69.5808 89.3994 69.88C89.2857 70.1791 89.1161 70.4351 88.8906 70.6479C88.6652 70.8607 88.384 71.0261 88.0469 71.144C87.7098 71.262 87.318 71.321 86.8713 71.321C86.4247 71.321 86.0329 71.262 85.6958 71.144C85.3587 71.0261 85.0774 70.8607 84.852 70.6479C84.6266 70.4351 84.457 70.1791 84.3433 69.88C84.2295 69.5808 84.1726 69.2511 84.1726 68.8909ZM86.8713 70.6669C86.9977 70.6669 87.1094 70.6447 87.2063 70.6005C87.3032 70.5563 87.3843 70.4699 87.4496 70.3414C87.5149 70.2129 87.5645 70.0327 87.5982 69.801C87.6319 69.5692 87.6487 69.2659 87.6487 68.8909C87.6487 68.5201 87.6319 68.2199 87.5982 67.9903C87.5645 67.7606 87.5149 67.5826 87.4496 67.4562C87.3843 67.3298 87.3032 67.2445 87.2063 67.2002C87.1094 67.156 86.9977 67.1339 86.8713 67.1339C86.7449 67.1339 86.6322 67.156 86.5332 67.2002C86.4363 67.2445 86.3552 67.3298 86.2899 67.4562C86.2246 67.5826 86.1751 67.7606 86.1414 67.9903C86.1076 68.2199 86.0908 68.5201 86.0908 68.8909C86.0908 69.2659 86.1076 69.5692 86.1414 69.801C86.1751 70.0327 86.2246 70.2129 86.2899 70.3414C86.3552 70.4699 86.4363 70.5563 86.5332 70.6005C86.6322 70.6447 86.7449 70.6669 86.8713 70.6669Z" fill="white"/>
<path d="M78.8638 66.553H80.8641L81.9638 69.5709L82.9814 66.553L83.8062 66.5498L82.1598 71.2489L80.6713 71.2457L78.8638 66.553Z" fill="white"/>
<path d="M74.4238 66.5527H78.3929V67.2764H76.2535L76.2504 68.5436H77.8873V69.2673H76.2504V70.525H78.3929V71.2486H74.4238V66.5527Z" fill="white"/>
<path d="M70.5713 67.2735H69.2314V66.5498H73.7378V67.2735H72.3979V71.2489H70.5713V67.2735Z" fill="white"/>
<path d="M64.6842 70.2055C64.9075 70.3192 65.1413 70.4046 65.3857 70.4615C65.6301 70.5183 65.8576 70.5468 66.0683 70.5468C66.3106 70.5468 66.4876 70.512 66.5992 70.4425C66.713 70.373 66.7699 70.2782 66.7699 70.1581C66.7699 70.1202 66.7625 70.0812 66.7477 70.0412C66.7351 70.0011 66.7088 69.9622 66.6687 69.9242C66.6308 69.8842 66.5771 69.8452 66.5076 69.8073C66.4401 69.7673 66.3517 69.7283 66.2421 69.6904L65.6765 69.4976C65.272 69.3586 64.9675 69.1711 64.7632 68.9351C64.5588 68.6971 64.4567 68.4148 64.4567 68.0882C64.4567 67.8775 64.5009 67.6753 64.5894 67.4815C64.6779 67.2855 64.8116 67.1138 64.9907 66.9664C65.1698 66.8168 65.3952 66.6978 65.667 66.6093C65.9409 66.5208 66.2611 66.4766 66.6276 66.4766C66.8088 66.4766 66.9826 66.4871 67.1491 66.5082C67.3155 66.5292 67.4714 66.5566 67.6168 66.5903C67.7642 66.624 67.8991 66.663 68.0213 66.7072C68.1434 66.7494 68.2509 66.7915 68.3436 66.8337L68.0023 67.4499C67.9349 67.4077 67.8632 67.3709 67.7874 67.3393C67.7137 67.3077 67.6389 67.2813 67.563 67.2603C67.4893 67.2392 67.4166 67.2234 67.345 67.2129C67.2734 67.2023 67.2081 67.1971 67.1491 67.1971C67.0479 67.1971 66.9595 67.2108 66.8836 67.2381C66.8078 67.2634 66.7435 67.2982 66.6909 67.3424C66.6403 67.3846 66.6013 67.433 66.5739 67.4878C66.5486 67.5405 66.536 67.5931 66.536 67.6458C66.536 67.6921 66.5465 67.7374 66.5676 67.7817C66.5908 67.8238 66.6287 67.866 66.6814 67.9081C66.7361 67.9481 66.8067 67.9892 66.8931 68.0313C66.9816 68.0714 67.0911 68.1135 67.2217 68.1577L67.601 68.2841C68.0118 68.4211 68.3257 68.6096 68.5427 68.8498C68.7597 69.09 68.8682 69.3807 68.8682 69.722C68.8682 69.9537 68.8155 70.1676 68.7102 70.3635C68.6069 70.5594 68.4521 70.729 68.2456 70.8723C68.0392 71.0134 67.7821 71.124 67.4746 71.2041C67.1691 71.282 66.8141 71.321 66.4096 71.321C66.2158 71.321 66.0283 71.3105 65.8471 71.2894C65.668 71.2704 65.4921 71.2409 65.3194 71.2009C65.1487 71.1609 64.9802 71.1103 64.8137 71.0492C64.6473 70.9881 64.4809 70.9165 64.3145 70.8343L64.6842 70.2055Z" fill="white"/>
<path d="M58.2979 68.8909C58.2979 68.5348 58.3547 68.2094 58.4685 67.9144C58.5823 67.6174 58.7519 67.3624 58.9773 67.1497C59.2027 66.9369 59.4839 66.7715 59.821 66.6535C60.1581 66.5356 60.55 66.4766 60.9966 66.4766C61.4432 66.4766 61.8351 66.5356 62.1721 66.6535C62.5092 66.7715 62.7905 66.9369 63.0159 67.1497C63.2413 67.3624 63.4109 67.6174 63.5247 67.9144C63.6384 68.2094 63.6953 68.5348 63.6953 68.8909C63.6953 69.2511 63.6384 69.5808 63.5247 69.88C63.4109 70.1791 63.2413 70.4351 63.0159 70.6479C62.7905 70.8607 62.5092 71.0261 62.1721 71.144C61.8351 71.262 61.4432 71.321 60.9966 71.321C60.55 71.321 60.1581 71.262 59.821 71.144C59.4839 71.0261 59.2027 70.8607 58.9773 70.6479C58.7519 70.4351 58.5823 70.1791 58.4685 69.88C58.3547 69.5808 58.2979 69.2511 58.2979 68.8909ZM60.9966 70.6669C61.123 70.6669 61.2346 70.6447 61.3315 70.6005C61.4285 70.5563 61.5096 70.4699 61.5749 70.3414C61.6402 70.2129 61.6897 70.0327 61.7234 69.801C61.7571 69.5692 61.774 69.2659 61.774 68.8909C61.774 68.5201 61.7571 68.2199 61.7234 67.9903C61.6897 67.7606 61.6402 67.5826 61.5749 67.4562C61.5096 67.3298 61.4285 67.2445 61.3315 67.2002C61.2346 67.156 61.123 67.1339 60.9966 67.1339C60.8702 67.1339 60.7575 67.156 60.6584 67.2002C60.5615 67.2445 60.4804 67.3298 60.4151 67.4562C60.3498 67.5826 60.3003 67.7606 60.2666 67.9903C60.2329 68.2199 60.216 68.5201 60.216 68.8909C60.216 69.2659 60.2329 69.5692 60.2666 69.801C60.3003 70.0327 60.3498 70.2129 60.4151 70.3414C60.4804 70.4699 60.5615 70.5563 60.6584 70.6005C60.7575 70.6447 60.8702 70.6669 60.9966 70.6669Z" fill="white"/>
<path d="M52.6033 68.9035C52.6033 68.6802 52.6317 68.4653 52.6886 68.2589C52.7476 68.0503 52.8329 67.8565 52.9446 67.6774C53.0562 67.4983 53.1932 67.3351 53.3554 67.1876C53.5176 67.0401 53.7019 66.9137 53.9084 66.8084C54.117 66.703 54.3466 66.6219 54.5973 66.565C54.848 66.5061 55.1177 66.4766 55.4063 66.4766C55.5917 66.4766 55.7686 66.4881 55.9372 66.5113C56.1078 66.5345 56.2679 66.5672 56.4175 66.6093C56.5671 66.6493 56.7051 66.6967 56.8315 66.7515C56.96 66.8042 57.0759 66.86 57.1791 66.919L56.9073 67.4499C56.7894 67.393 56.6545 67.3456 56.5028 67.3077C56.3533 67.2676 56.1974 67.2476 56.0351 67.2476C55.8181 67.2476 55.617 67.2866 55.4316 67.3646C55.2462 67.4425 55.0861 67.5531 54.9512 67.6964C54.8164 67.8396 54.71 68.0134 54.6321 68.2178C54.5562 68.42 54.5183 68.6476 54.5183 68.9004C54.5183 69.1511 54.5562 69.3786 54.6321 69.5829C54.7079 69.7852 54.8122 69.959 54.9449 70.1044C55.0797 70.2476 55.2388 70.3593 55.4221 70.4393C55.6075 70.5173 55.8076 70.5563 56.0225 70.5563V68.9667H57.8648L57.5362 69.564V70.8407L57.5394 70.847C57.4361 70.9081 57.3087 70.9671 57.157 71.0239C57.0053 71.0808 56.8357 71.1324 56.6482 71.1788C56.4628 71.223 56.2648 71.2589 56.0541 71.2862C55.8434 71.3136 55.6275 71.3273 55.4063 71.3273C54.9744 71.3273 54.5847 71.2641 54.237 71.1377C53.8915 71.0092 53.5977 70.8354 53.3554 70.6163C53.1131 70.3951 52.9267 70.1381 52.796 69.8452C52.6675 69.5503 52.6033 69.2364 52.6033 68.9035Z" fill="white"/>
<path d="M76.3269 73.6094H78.1534V76.5925C78.1534 76.761 78.1756 76.9075 78.2198 77.0318C78.2662 77.154 78.3294 77.2561 78.4094 77.3383C78.4916 77.4184 78.5874 77.4784 78.697 77.5184C78.8065 77.5584 78.9245 77.5785 79.0509 77.5785C79.19 77.5785 79.3143 77.5584 79.4238 77.5184C79.5355 77.4784 79.6303 77.4173 79.7082 77.3351C79.7862 77.253 79.8462 77.1497 79.8883 77.0254C79.9305 76.9011 79.9515 76.7547 79.9515 76.5862V73.6094H80.6468V76.4787C80.6468 76.7695 80.5994 77.0318 80.5046 77.2656C80.4119 77.4995 80.2791 77.6996 80.1064 77.866C79.9336 78.0304 79.7251 78.1568 79.4807 78.2452C79.2363 78.3337 78.9635 78.378 78.6622 78.378C78.2514 78.378 77.8985 78.3348 77.6036 78.2484C77.3086 78.1599 77.0664 78.0346 76.8768 77.8724C76.6872 77.708 76.5481 77.51 76.4596 77.2783C76.3711 77.0465 76.3269 76.7853 76.3269 76.4945V73.6094Z" fill="white"/>
<path d="M72.0196 74.7944L71.4761 73.6094H73.4006L75.7011 78.3084H73.6376L73.29 77.5563H71.4381L71.0937 78.3084H70.2942L72.0196 74.7944ZM72.9582 76.8327L72.3641 75.5434L71.7731 76.8327H72.9582Z" fill="white"/>
<path d="M66.8687 74.3291H65.5288V73.6055H70.0351V74.3291H68.6952V78.3045H66.8687V74.3291Z" fill="white"/>
<path d="M61.7178 74.7944L61.1743 73.6094H63.0988L65.3994 78.3084H63.3358L62.9882 77.5563H61.1364L60.7919 78.3084H59.9924L61.7178 74.7944ZM62.6564 76.8327L62.0623 75.5434L61.4714 76.8327H62.6564Z" fill="white"/>
<path d="M53.2017 73.6094H54.4941L56.2701 76.0679L57.9576 73.6094H59.2153V78.3053H57.392V75.9068L55.6413 78.3653L53.8969 75.9068V78.3053H53.2017V73.6094Z" fill="white"/>
<path d="M48.8281 73.6094H50.6578L50.6547 77.5816H52.4496V78.3053H48.8281V73.6094Z" fill="white"/>
<path d="M44.5018 74.7934L43.9582 73.6084H45.8827L48.1833 78.3075H46.1198L45.7721 77.5554H43.9203L43.5759 78.3075H42.7764L44.5018 74.7934ZM45.4403 76.8317L44.8462 75.5424L44.2553 76.8317H45.4403Z" fill="white"/>
<path d="M31.2154 50.8683H27.7471L47.6901 31.8887L49.2316 33.6228L31.2154 50.8683Z" fill="#636363"/>
<path d="M93.0677 36.2241L91.4299 37.6693L105.207 51.1573L107.519 50.5792L93.0677 36.2241Z" fill="#636363"/>
<path d="M114.898 48.5361H117.254L118.176 53.7595H114.181L114.898 48.5361Z" fill="#210C00"/>
<path d="M119.473 35.1876C118.272 34.7236 116.85 32.2175 116.289 31.0225C116.53 31.6551 114.227 34.1683 113.046 35.3457C113.186 35.2579 113.815 34.9767 115.208 34.5549C115.448 35.2298 112.986 38.843 111.724 40.5653C111.985 40.5302 112.757 40.365 113.767 39.9854C113.911 40.5337 111.664 43.2718 110.523 44.5723C110.823 44.5196 111.748 44.3403 113.046 44.045C113.226 44.7193 112.187 47.4173 109.483 49.4755H112.064C111.695 50.126 110.779 50.934 109.061 52.2214C110.602 52.1687 115.905 52.3015 124.219 52.428C122.585 52.1328 121.095 50.3367 120.554 49.4755H123.137C121.263 48.5476 119.914 45.4686 119.473 44.045C119.573 44.045 120.302 44.1505 122.416 44.5723C121.215 44.0661 119.473 41.3034 118.752 39.9854C118.852 40.0381 119.413 40.2279 120.855 40.5653C119.653 40.0592 117.991 36.3475 117.311 34.5549C117.471 34.6076 118.128 34.808 119.473 35.1876Z" fill="#001602"/>
<path d="M119.466 45.666H123.897L125.439 55.3003L117.924 55.204L119.466 45.666Z" fill="white"/>
<path d="M128.072 20.5529C125.812 19.68 123.137 14.9651 122.083 12.7168C122.535 13.9071 118.203 18.6352 115.98 20.8504C116.244 20.6851 117.427 20.1561 120.048 19.3626C120.5 20.6322 115.867 27.4301 113.494 30.6703C113.983 30.6042 115.438 30.2934 117.336 29.5792C117.607 30.6108 113.381 35.7621 111.234 38.2088C111.799 38.1096 113.539 37.7724 115.98 37.2169C116.32 38.4853 114.365 43.5613 109.277 47.4336H114.133C113.44 48.6573 111.716 50.1774 108.482 52.5995C111.383 52.5003 121.359 52.7502 137 52.9882C133.926 52.4328 131.123 49.0537 130.106 47.4336H134.966C131.44 45.6878 128.901 39.8951 128.072 37.2169C128.261 37.2169 129.632 37.4153 133.61 38.2088C131.349 37.2566 128.072 32.059 126.716 29.5792C126.904 29.6784 127.959 30.0355 130.671 30.6703C128.411 29.7181 125.285 22.7351 124.004 19.3626C124.305 19.4618 125.541 19.8387 128.072 20.5529Z" fill="white"/>
<path d="M18.9416 29.0107C16.9562 28.0543 14.6069 22.8883 13.6805 20.4248C14.0775 21.729 10.2723 26.9095 8.32008 29.3368C8.5517 29.1556 9.59069 28.576 11.8937 27.7065C12.2907 29.0977 8.22081 36.5461 6.13622 40.0964C6.56638 40.0239 7.8436 39.6834 9.51127 38.9009C9.74951 40.0312 6.03696 45.6754 4.1509 48.3563C4.64723 48.2476 6.17593 47.8781 8.32008 47.2694C8.61876 48.6593 6.90107 54.221 2.43234 58.4638H6.69769C6.0886 59.8046 4.57433 61.4702 1.73438 64.1241C4.28221 64.0154 13.0452 64.2891 26.7836 64.55C24.0836 63.9414 21.6218 60.2389 20.7284 58.4638H24.9968C21.8997 56.5509 19.6695 50.2039 18.9416 47.2694C19.107 47.2694 20.3114 47.4868 23.8056 48.3563C21.8203 47.3129 18.9416 41.6179 17.7504 38.9009C17.9158 39.0096 18.8423 39.4008 21.2247 40.0964C19.2394 39.053 16.493 31.4018 15.368 27.7065C15.6327 27.8152 16.718 28.2282 18.9416 29.0107Z" fill="white"/>
<path d="M0 79.8369H29.481C44.2023 57.6394 103.762 54.4666 131.701 55.6548L108.097 53.8243L89.9845 53.1499C77.492 52.5718 46.9191 53.2269 24.5675 60.4719C8.45893 65.4047 1.47726 75.4372 0 79.8369Z" fill="white"/>
<path d="M66.2839 24.9526V23.1221H67.6327V24.9526H66.2839Z" fill="white"/>
<path d="M68.2108 24.9526V23.1221H69.5596V24.9526H68.2108Z" fill="white"/>
<path d="M66.2839 27.1685V25.338H67.6327V27.1685H66.2839Z" fill="white"/>
<path d="M68.2108 27.1685V25.338H69.5596V27.1685H68.2108Z" fill="white"/>
<path d="M58.3842 26.5906L66.9967 18.6904L67.3703 19.7502L60.1183 26.5906H58.3842Z" fill="#636363"/>
</svg>
