<svg width="24" height="24" viewBox="0 0 24 24" fill="none" xmlns="http://www.w3.org/2000/svg">
<path d="M23.999 5.46C23.9855 4.94229 23.9455 4.42561 23.879 3.912C23.7894 3.46215 23.6401 3.02629 23.435 2.616C23.2205 2.17093 22.9325 1.76523 22.583 1.416C22.2303 1.07065 21.8254 0.783109 21.383 0.564C20.9722 0.362933 20.5363 0.217648 20.087 0.132C19.5783 0.0557992 19.0653 0.0117121 18.551 0H5.45902C4.94131 0.0134837 4.42463 0.0535363 3.91102 0.12C3.46117 0.209602 3.02531 0.358924 2.61502 0.564C2.16995 0.778484 1.76426 1.06653 1.41502 1.416C1.06967 1.76869 0.782133 2.17367 0.563024 2.616C0.361957 3.02684 0.216672 3.46269 0.131023 3.912C0.0548227 4.42072 0.0107356 4.93374 -0.000976562 5.448V18.54C0.0125071 19.0577 0.0525597 19.5744 0.119023 20.088C0.208625 20.5379 0.357947 20.9737 0.563024 21.384C0.777508 21.8291 1.06555 22.2348 1.41502 22.584C1.76772 22.9294 2.1727 23.2169 2.61502 23.436C3.02586 23.6371 3.46171 23.7824 3.91102 23.868C4.41975 23.9442 4.93276 23.9883 5.44702 24H18.539C19.0567 23.9865 19.5734 23.9465 20.087 23.88C20.5369 23.7904 20.9727 23.6411 21.383 23.436C21.8281 23.2215 22.2338 22.9335 22.583 22.584C22.9284 22.2313 23.2159 21.8263 23.435 21.384C23.6361 20.9732 23.7814 20.5373 23.867 20.088C23.9432 19.5793 23.9873 19.0663 23.999 18.552V6.096V5.46ZM12.275 20.4C10.8339 20.3929 9.41798 20.0214 8.15902 19.32L3.59902 20.52L4.79902 16.056C4.02516 14.7557 3.61101 13.2731 3.59902 11.76C3.6038 10.0595 4.11167 8.39846 5.05866 6.98605C6.00564 5.57364 7.34941 4.47304 8.9207 3.82286C10.492 3.17268 12.2205 3.002 13.8886 3.33233C15.5568 3.66265 17.0898 4.47919 18.2947 5.67912C19.4997 6.87905 20.3226 8.40871 20.6598 10.0754C20.9971 11.7421 20.8336 13.4714 20.19 15.0454C19.5463 16.6194 18.4513 17.9677 17.0429 18.9205C15.6344 19.8734 13.9755 20.3882 12.275 20.4ZM12.275 4.644C11.0028 4.65856 9.75714 5.00998 8.66489 5.66249C7.57264 6.31499 6.6728 7.24528 6.05698 8.35862C5.44116 9.47197 5.13136 10.7286 5.15913 12.0006C5.18689 13.2726 5.55122 14.5146 6.21502 15.6L6.38302 15.876L5.66302 18.504L8.39902 17.76L8.66302 17.916C9.75451 18.5589 10.9963 18.9025 12.263 18.912C14.1726 18.912 16.0039 18.1534 17.3542 16.8032C18.7045 15.4529 19.463 13.6216 19.463 11.712C19.463 9.80244 18.7045 7.97109 17.3542 6.62083C16.0039 5.27057 14.1726 4.512 12.263 4.512L12.275 4.644ZM16.475 14.868C16.3179 15.1302 16.1074 15.3564 15.8573 15.5321C15.6072 15.7078 15.323 15.8291 15.023 15.888C14.5749 15.9699 14.1135 15.9411 13.679 15.804C13.2702 15.6762 12.8695 15.5239 12.479 15.348C10.9955 14.6036 9.73035 13.4873 8.80702 12.108C8.30528 11.469 8.00085 10.6975 7.93102 9.888C7.92388 9.55175 7.98749 9.21774 8.11772 8.90765C8.24796 8.59756 8.44192 8.31831 8.68702 8.088C8.75922 8.00615 8.84779 7.94035 8.94701 7.89488C9.04623 7.8494 9.15389 7.82526 9.26302 7.824H9.59902C9.73102 7.824 9.91102 7.824 10.079 8.196C10.247 8.568 10.691 9.684 10.751 9.792C10.7805 9.84957 10.7959 9.91332 10.7959 9.978C10.7959 10.0427 10.7805 10.1064 10.751 10.164C10.698 10.2944 10.6251 10.4158 10.535 10.524C10.427 10.656 10.307 10.812 10.211 10.908C10.115 11.004 9.99502 11.124 10.115 11.34C10.4415 11.891 10.8457 12.3922 11.315 12.828C11.8261 13.2796 12.4105 13.6408 13.043 13.896C13.259 14.004 13.391 13.992 13.511 13.896C13.631 13.8 14.051 13.272 14.195 13.056C14.339 12.84 14.483 12.876 14.675 12.948C14.867 13.02 15.935 13.536 16.151 13.644C16.367 13.752 16.499 13.8 16.559 13.896C16.6111 14.2101 16.5822 14.5322 16.475 14.832V14.868Z" fill="white"/>
</svg>
